<svg version="1.2" xmlns="http://www.w3.org/2000/svg" viewBox="0 0 1200 800" width="1200" height="800"><defs><linearGradient id="P" gradientUnits="userSpaceOnUse"/><linearGradient id="g1" x1="274.6" y1="471.4" x2="274.6" y2="334.7" href="#P"><stop stop-color="#dbccff"/><stop offset="1" stop-color="#d1bbff"/></linearGradient><linearGradient id="g2" x1="276.9" y1="476.4" x2="276.9" y2="339.7" href="#P"><stop stop-color="#b5a6e7"/><stop offset="1" stop-color="#7760bf"/></linearGradient><linearGradient id="g3" x1="280.7" y1="444" x2="280.7" y2="386.5" href="#P"><stop stop-color="#b5a6e7"/><stop offset="1" stop-color="#7760bf"/></linearGradient><linearGradient id="g4" x1="259.8" y1="388.9" x2="275.2" y2="381.7" href="#P"><stop stop-color="#8b8be0"/><stop offset="1" stop-color="#a177b7"/></linearGradient><linearGradient id="g5" x1="256.1" y1="400.2" x2="251.8" y2="390.8" href="#P"><stop stop-color="#fff"/><stop offset="1" stop-color="#a177b7"/></linearGradient><linearGradient id="g6" x1="298.6" y1="447.6" x2="270.6" y2="387.7" href="#P"><stop/><stop offset="1" stop-color="#fff"/></linearGradient><linearGradient id="g7" x1="395.8" y1="782" x2="395.8" y2="603.6" href="#P"><stop stop-color="#6456c0"/><stop offset="1" stop-color="#5f2c95"/></linearGradient><radialGradient id="g8" cx="444.7" cy="717.8" r="31.4" href="#P"><stop stop-color="#4b474b"/><stop offset="1"/></radialGradient><radialGradient id="g9" cx="611.1" cy="716.9" r="31.6" href="#P"><stop stop-color="#4b474b"/><stop offset="1"/></radialGradient><linearGradient id="g10" x1="473.9" y1="652.6" x2="520.6" y2="652.6" href="#P"><stop stop-color="#9e8cef"/><stop offset="1" stop-color="#caafee"/></linearGradient><linearGradient id="g11" x1="583.2" y1="652.6" x2="536.4" y2="652.6" href="#P"><stop stop-color="#9e8cef"/><stop offset="1" stop-color="#caafee"/></linearGradient><linearGradient id="g12" x1="429.6" y1="782" x2="429.6" y2="603.6" href="#P"><stop stop-color="#ccf"/><stop offset="1" stop-color="#755cbb"/></linearGradient><linearGradient id="g13" x1="532.7" y1="692.8" x2="532.7" y2="644.1" href="#P"><stop stop-color="#ccf"/><stop offset="1" stop-color="#755cbb"/></linearGradient><linearGradient id="g14" x1="455.1" y1="674.9" x2="455.1" y2="627.2" href="#P"><stop stop-color="#ccf"/><stop offset="1" stop-color="#755cbb"/></linearGradient><linearGradient id="g15" x1="497.6" y1="334.9" x2="497.6" y2="263.7" href="#P"><stop stop-color="#d5cdf8"/><stop offset="1" stop-color="#f3edfb"/></linearGradient><linearGradient id="g16" x1="501.4" y1="259.7" x2="570.7" y2="259.7" href="#P"><stop stop-color="#ccf"/><stop offset="1" stop-color="#755cbb"/></linearGradient><linearGradient id="g17" x1="343" y1="616.8" x2="343" y2="260.6" href="#P"><stop stop-color="#9e8cef"/><stop offset="1" stop-color="#caafee"/></linearGradient><linearGradient id="g18" x1="368.2" y1="305.6" x2="455.6" y2="305.6" href="#P"><stop stop-color="#ccf"/><stop offset="1" stop-color="#755cbb"/></linearGradient><linearGradient id="g19" x1="318.5" y1="496.3" x2="318.5" y2="328.5" href="#P"><stop stop-color="#9e8cef"/><stop offset="1" stop-color="#dac7f3"/></linearGradient><linearGradient id="g20" x1="658.3" y1="382.7" x2="765.7" y2="382.7" href="#P"><stop stop-color="#a999f1"/><stop offset="1" stop-color="#dac7f3"/></linearGradient><linearGradient id="g21" x1="306.7" y1="305.5" x2="306.7" y2="261.5" href="#P"><stop offset="0" stop-color="#ffc2a9"/><stop offset="1" stop-color="#ff9595"/></linearGradient><linearGradient id="g22" x1="336.2" y1="304.6" x2="336.2" y2="231.3" href="#P"><stop stop-color="#ffeadb"/><stop offset="1" stop-color="#c27cb6"/></linearGradient><linearGradient id="g23" x1="316.9" y1="354.4" x2="316.9" y2="241.5" href="#P"><stop offset="0" stop-color="#ffc2a9"/><stop offset="1" stop-color="#ff9595"/></linearGradient><linearGradient id="g24" x1="334.1" y1="315.2" x2="369.6" y2="315.2" href="#P"><stop offset="0" stop-color="#d1a1d6"/><stop offset="1" stop-color="#bd89c4"/></linearGradient><linearGradient id="g25" x1="706.3" y1="423.2" x2="706.3" y2="272.9" href="#P"><stop offset="0" stop-color="#ffc2a9"/><stop offset="1" stop-color="#ff9595"/></linearGradient><linearGradient id="g26" x1="746.6" y1="374.8" x2="746.6" y2="299.8" href="#P"><stop stop-color="#ffeadb"/><stop offset="1" stop-color="#c27cb6"/></linearGradient><linearGradient id="g27" x1="779.8" y1="348.9" x2="779.8" y2="316.1" href="#P"><stop stop-color="#ffb0b0"/><stop offset="1" stop-color="#ffc2a9"/></linearGradient><linearGradient id="g28" x1="808.9" y1="354.1" x2="808.9" y2="335.7" href="#P"><stop stop-color="#ffb0b0"/><stop offset="1" stop-color="#ffc2a9"/></linearGradient><linearGradient id="g29" x1="742.3" y1="369.1" x2="776.6" y2="369.1" href="#P"><stop offset="0" stop-color="#d1a1d6"/><stop offset="1" stop-color="#bd89c4"/></linearGradient><linearGradient id="g30" x1="618.4" y1="508.9" x2="618.4" y2="340.2" href="#P"><stop stop-color="#ccf"/><stop offset="1" stop-color="#755cbb"/></linearGradient><linearGradient id="g31" x1="322.4" y1="327" x2="605.1" y2="327" href="#P"><stop stop-color="#ccf"/><stop offset="1" stop-color="#755cbb"/></linearGradient><linearGradient id="g32" x1="571.6" y1="411.7" x2="625.6" y2="411.7" href="#P"><stop stop-color="#ccedff"/><stop offset="1" stop-color="#755cbb"/></linearGradient><linearGradient id="g33" x1="522.6" y1="501.7" x2="602" y2="501.7" href="#P"><stop stop-color="#ccedff"/><stop offset="1" stop-color="#755cbb"/></linearGradient><linearGradient id="g34" x1="526.7" y1="539.9" x2="611.1" y2="539.9" href="#P"><stop stop-color="#ccedff"/><stop offset="1" stop-color="#755cbb"/></linearGradient><linearGradient id="g35" x1="393.4" y1="469.7" x2="393.4" y2="374.5" href="#P"><stop stop-color="#ccedff"/><stop offset="1" stop-color="#755cbb"/></linearGradient><linearGradient id="g36" x1="432.5" y1="477.7" x2="432.5" y2="405.5" href="#P"><stop stop-color="#ccedff"/><stop offset="1" stop-color="#755cbb"/></linearGradient><linearGradient id="g37" x1="320.9" y1="384.7" x2="320.9" y2="330.9" href="#P"><stop stop-color="#ccedff"/><stop offset="1" stop-color="#755cbb"/></linearGradient><linearGradient id="g38" x1="391" y1="305.6" x2="413" y2="305.6" href="#P"><stop stop-color="#ccedff"/><stop offset="1" stop-color="#755cbb"/></linearGradient><linearGradient id="g39" x1="618.5" y1="469.7" x2="618.5" y2="368.6" href="#P"><stop stop-color="#ccf"/><stop offset="1" stop-color="#755cbb"/></linearGradient><linearGradient id="g40" x1="731" y1="448" x2="731" y2="395.2" href="#P"><stop stop-color="#ccf"/><stop offset="1" stop-color="#755cbb"/></linearGradient><linearGradient id="g41" x1="659.5" y1="445.6" x2="659.5" y2="405.2" href="#P"><stop stop-color="#ccf"/><stop offset="1" stop-color="#755cbb"/></linearGradient><linearGradient id="g42" x1="318.4" y1="386.2" x2="318.4" y2="373.9" href="#P"><stop stop-color="#ccedff"/><stop offset="1" stop-color="#755cbb"/></linearGradient><linearGradient id="g43" x1="358.5" y1="434.7" x2="358.5" y2="352.7" href="#P"><stop stop-color="#ccf"/><stop offset="1" stop-color="#755cbb"/></linearGradient><linearGradient id="g44" x1="560.9" y1="377" x2="560.9" y2="315.3" href="#P"><stop stop-color="#ccedff"/><stop offset="1" stop-color="#755cbb"/></linearGradient><linearGradient id="g45" x1="469.3" y1="368.6" x2="469.3" y2="283.5" href="#P"><stop stop-color="#ccedff"/><stop offset="1" stop-color="#755cbb"/></linearGradient><linearGradient id="g46" x1="476.8" y1="363.7" x2="619" y2="363.7" href="#P"><stop stop-color="#8642a0"/><stop offset="1" stop-color="#6456c0"/></linearGradient><linearGradient id="g47" x1="489.1" y1="256.6" x2="581.6" y2="256.6" href="#P"><stop stop-color="#ccf"/><stop offset="1" stop-color="#755cbb"/></linearGradient><linearGradient id="g48" x1="715.3" y1="442" x2="715.3" y2="388.4" href="#P"><stop stop-color="#ccf"/><stop offset="1" stop-color="#755cbb"/></linearGradient><linearGradient id="g49" x1="618.5" y1="502.4" x2="618.5" y2="340.2" href="#P"><stop stop-color="#ccf"/><stop offset="1" stop-color="#755cbb"/></linearGradient><linearGradient id="g50" x1="436.6" y1="578.5" x2="436.6" y2="532" href="#P"><stop stop-color="#ccf"/><stop offset="1" stop-color="#755cbb"/></linearGradient><linearGradient id="g51" x1="522.3" y1="562.1" x2="522.3" y2="543.2" href="#P"><stop stop-color="#ccf"/><stop offset="1" stop-color="#755cbb"/></linearGradient><linearGradient id="g52" x1="509.5" y1="272.6" x2="509.5" y2="125.8" href="#P"><stop offset="0" stop-color="#ffc2a9"/><stop offset="1" stop-color="#ff9595"/></linearGradient><linearGradient id="g53" x1="491.8" y1="212.1" x2="491.8" y2="167.8" href="#P"><stop offset="0" stop-color="#ffc2a9"/><stop offset="1" stop-color="#ff9595"/></linearGradient><linearGradient id="g54" x1="563.3" y1="225.1" x2="565" y2="216.2" href="#P"><stop stop-color="#e1616a"/><stop offset="1" stop-color="#ff8883"/></linearGradient><linearGradient id="g55" x1="517.9" y1="222.9" x2="517.9" y2="123.5" href="#P"><stop stop-color="#ffeadb"/><stop offset="1" stop-color="#c27cb6"/></linearGradient><linearGradient id="g56" x1="550.5" y1="182.2" x2="550.5" y2="162.5" href="#P"><stop stop-color="#cf6074"/><stop offset="1" stop-color="#f37270"/></linearGradient><linearGradient id="g57" x1="594.6" y1="188.4" x2="594.6" y2="171.3" href="#P"><stop stop-color="#cf6074"/><stop offset="1" stop-color="#ff817f"/></linearGradient><linearGradient id="g58" x1="594.5" y1="198.4" x2="594.5" y2="160.1" href="#P"><stop stop-color="#ffeadb"/><stop offset="1" stop-color="#c27cb6"/></linearGradient><linearGradient id="g59" x1="507" y1="274.3" x2="507" y2="90.3" href="#P"><stop stop-color="#2e33a0"/><stop offset="1" stop-color="#0665a5"/></linearGradient><linearGradient id="g60" x1="605.5" y1="159.6" x2="605.5" y2="116.4" href="#P"><stop stop-color="#ffeadb"/><stop offset="1" stop-color="#8860c7"/></linearGradient><linearGradient id="g61" x1="506.9" y1="274.3" x2="506.9" y2="90.3" href="#P"><stop stop-color="#ccc2db"/><stop offset="1" stop-color="#8860c7"/></linearGradient><linearGradient id="g62" x1="545.6" y1="275.3" x2="545.6" y2="269.8" href="#P"><stop stop-color="#776d7e"/><stop offset="1" stop-color="#9d68c2"/></linearGradient><linearGradient id="g63" x1="574.4" y1="103.7" x2="574.4" y2="98.1" href="#P"><stop stop-color="#1f77d1"/><stop offset="1" stop-color="#0686c9"/></linearGradient><linearGradient id="g64" x1="527.9" y1="123.4" x2="527.9" y2="106.9" href="#P"><stop stop-color="#1f77d1"/><stop offset="1" stop-color="#0686c9"/></linearGradient><linearGradient id="g65" x1="611.9" y1="132.4" x2="611.9" y2="116.4" href="#P"><stop stop-color="#1f77d1"/><stop offset="1" stop-color="#0686c9"/></linearGradient><linearGradient id="g66" x1="502.5" y1="213.3" x2="482.1" y2="188.3" href="#P"><stop stop-color="#ffeadb"/><stop offset="1" stop-color="#b060f4"/></linearGradient><linearGradient id="g67" x1="506.9" y1="207" x2="497.5" y2="195.4" href="#P"><stop stop-color="#ffeadb"/><stop offset="1" stop-color="#b060f4"/></linearGradient><linearGradient id="g68" x1="555.5" y1="118.3" x2="590" y2="118.3" href="#P"><stop stop-color="#1f77d1"/><stop offset="1" stop-color="#0686c9"/></linearGradient><linearGradient id="g69" x1="604.2" y1="214.6" x2="614.7" y2="214.6" href="#P"><stop stop-color="#1f77d1"/><stop offset="1" stop-color="#0686c9"/></linearGradient><linearGradient id="g70" x1="591.3" y1="213.1" x2="602.6" y2="213.1" href="#P"><stop stop-color="#1f77d1"/><stop offset="1" stop-color="#0686c9"/></linearGradient><linearGradient id="g71" x1="674.7" y1="231.2" x2="1028.2" y2="231.2" href="#P"><stop stop-color="#9d68c2"/><stop offset="1" stop-color="#aec2ff"/></linearGradient><linearGradient id="g72" x1="688.6" y1="381.6" x2="688.6" y2="274.8" href="#P"><stop stop-color="#ccedff"/><stop offset="1" stop-color="#9d68c2"/></linearGradient><linearGradient id="g73" x1="901.2" y1="329.6" x2="901.2" y2="282.5" href="#P"><stop stop-color="#ccedff"/><stop offset="1" stop-color="#9d68c2"/></linearGradient><linearGradient id="g74" x1="956.7" y1="329.6" x2="956.7" y2="282.5" href="#P"><stop stop-color="#ccedff"/><stop offset="1" stop-color="#9d68c2"/></linearGradient><linearGradient id="g75" x1="844.8" y1="329.6" x2="844.8" y2="282.5" href="#P"><stop stop-color="#ccedff"/><stop offset="1" stop-color="#9d68c2"/></linearGradient><linearGradient id="g76" x1="333.7" y1="214" x2="333.7" y2="164.7" href="#P"><stop stop-color="#d93de3"/><stop offset="1" stop-color="#ff6dba"/></linearGradient><linearGradient id="g77" x1="390.2" y1="214" x2="390.2" y2="164.7" href="#P"><stop stop-color="#a242ea"/><stop offset="1" stop-color="#fe117e"/></linearGradient><linearGradient id="g78" x1="230.4" y1="716.7" x2="257.1" y2="504.7" href="#P"><stop stop-color="#067eff"/><stop offset="1" stop-color="#3e37a0"/></linearGradient><linearGradient id="g79" x1="966.6" y1="208.6" x2="966.6" y2="190.7" href="#P"><stop stop-color="#459fff"/><stop offset="1" stop-color="#a96dff"/></linearGradient><linearGradient id="g80" x1="124.4" y1="418.1" x2="124.4" y2="395.8" href="#P"><stop stop-color="#459fff"/><stop offset="1" stop-color="#a96dff"/></linearGradient><linearGradient id="g81" x1="992.8" y1="208.6" x2="992.8" y2="190.7" href="#P"><stop stop-color="#b31a8f"/><stop offset="1" stop-color="#fe117e"/></linearGradient><linearGradient id="g82" x1="419.1" y1="267.5" x2="419.1" y2="254.8" href="#P"><stop stop-color="#b31a8f"/><stop offset="1" stop-color="#fe117e"/></linearGradient><linearGradient id="g83" x1="842.4" y1="546.3" x2="842.4" y2="533.7" href="#P"><stop stop-color="#8642a0"/><stop offset="1" stop-color="#6456c0"/></linearGradient><linearGradient id="g84" x1="186" y1="608.7" x2="186" y2="597.4" href="#P"><stop stop-color="#8642a0"/><stop offset="1" stop-color="#6456c0"/></linearGradient><linearGradient id="g85" x1="173.7" y1="547.5" x2="173.7" y2="454.2" href="#P"><stop stop-color="#d906e3"/><stop offset="1" stop-color="#ff6df9"/></linearGradient><linearGradient id="g86" x1="801.6" y1="679.6" x2="801.6" y2="562.9" href="#P"><stop stop-color="#d906e3"/><stop offset="1" stop-color="#ff6df9"/></linearGradient><linearGradient id="g87" x1="742.3" y1="613.9" x2="742.3" y2="529.7" href="#P"><stop stop-color="#1852a0"/><stop offset="1" stop-color="#067ed3"/></linearGradient><linearGradient id="g88" x1="735.9" y1="613.9" x2="735.9" y2="524.2" href="#P"><stop stop-color="#1852a0"/><stop offset="1" stop-color="#067ed3"/></linearGradient><linearGradient id="g89" x1="727.2" y1="609" x2="727.2" y2="524.2" href="#P"><stop stop-color="#188dc1"/><stop offset="1" stop-color="#06bfe7"/></linearGradient><linearGradient id="g90" x1="744" y1="144.3" x2="766.7" y2="60.1" href="#P"><stop stop-color="#188dc1"/><stop offset="1" stop-color="#06bfe7"/></linearGradient><linearGradient id="g91" x1="742.4" y1="144.6" x2="759.3" y2="81.8" href="#P"><stop stop-color="#1852a0"/><stop offset="1" stop-color="#067ed3"/></linearGradient><linearGradient id="g92" x1="176.9" y1="293.3" x2="161.5" y2="235.9" href="#P"><stop stop-color="#188dc1"/><stop offset="1" stop-color="#06bfe7"/></linearGradient><linearGradient id="g93" x1="178.1" y1="293.5" x2="166.5" y2="250.8" href="#P"><stop stop-color="#1852a0"/><stop offset="1" stop-color="#067ed3"/></linearGradient></defs><style>.a{fill:#f1f1f4}.b{fill:#e0f3ff}.c{fill:url(#g1)}.d{fill:url(#g2)}.e{fill:#e5e2ff}.f{fill:url(#g3)}.g{opacity:.6;mix-blend-mode:multiply;fill:url(#g4)}.h{opacity:.6;mix-blend-mode:multiply;fill:url(#g5)}.i{opacity:.5;mix-blend-mode:screen;fill:url(#g6)}.j{fill:#fff}.k{fill:url(#g7)}.l{opacity:.5;mix-blend-mode:screen;fill:url(#g8)}.m{opacity:.5;mix-blend-mode:screen;fill:url(#g9)}.n{fill:url(#g10)}.o{fill:url(#g11)}.p{opacity:.8;mix-blend-mode:multiply;fill:url(#g12)}.q{opacity:.8;mix-blend-mode:multiply;fill:url(#g13)}.r{opacity:.8;mix-blend-mode:multiply;fill:url(#g14)}.s{fill:#fe9083}.t{fill:url(#g15)}.u{opacity:.5;mix-blend-mode:multiply;fill:url(#g16)}.v{fill:url(#g17)}.w{opacity:.5;mix-blend-mode:multiply;fill:url(#g18)}.x{fill:url(#g19)}.y{fill:url(#g20)}.z{fill:#cb4d7a}.A{fill:#ee8183}.B{fill:url(#g21)}.C{opacity:.6;mix-blend-mode:multiply;fill:url(#g22)}.D{fill:url(#g23)}.E{fill:#e28183}.F{opacity:.9;mix-blend-mode:multiply;fill:url(#g24)}.G{fill:url(#g25)}.H{opacity:.6;mix-blend-mode:multiply;fill:url(#g26)}.I{fill:url(#g27)}.J{fill:url(#g28)}.K{opacity:.9;mix-blend-mode:multiply;fill:url(#g29)}.L{opacity:.5;mix-blend-mode:multiply;fill:url(#g30)}.M{opacity:.5;mix-blend-mode:multiply;fill:url(#g31)}.N{opacity:.5;mix-blend-mode:multiply;fill:url(#g32)}.O{opacity:.5;mix-blend-mode:multiply;fill:url(#g33)}.P{opacity:.5;mix-blend-mode:multiply;fill:url(#g34)}.Q{opacity:.5;mix-blend-mode:multiply;fill:url(#g35)}.R{opacity:.5;mix-blend-mode:multiply;fill:url(#g36)}.S{opacity:.5;mix-blend-mode:multiply;fill:url(#g37)}.T{opacity:.5;mix-blend-mode:multiply;fill:url(#g38)}.U{opacity:.8;mix-blend-mode:multiply;fill:url(#g39)}.V{opacity:.5;mix-blend-mode:multiply;fill:url(#g40)}.W{opacity:.3;mix-blend-mode:multiply;fill:url(#g41)}.X{opacity:.5;mix-blend-mode:multiply;fill:url(#g42)}.Y{opacity:.5;mix-blend-mode:multiply;fill:url(#g43)}.Z{opacity:.5;mix-blend-mode:multiply;fill:url(#g44)}.a0{opacity:.5;mix-blend-mode:multiply;fill:url(#g45)}.a1{fill:url(#g46)}.a2{fill:#ebefff}.a3{opacity:.5;mix-blend-mode:multiply;fill:url(#g47)}.a4{opacity:.3;mix-blend-mode:multiply;fill:url(#g48)}.a5{opacity:.5;mix-blend-mode:multiply;fill:url(#g49)}.a6{opacity:.5;mix-blend-mode:multiply;fill:url(#g50)}.a7{opacity:.5;mix-blend-mode:multiply;fill:url(#g51)}.a8{opacity:.5;mix-blend-mode:multiply;fill:#7a4ac0}.a9{fill:url(#g52)}.aa{fill:url(#g53)}.ab{fill:url(#g54)}.ac{opacity:.6;mix-blend-mode:multiply;fill:url(#g55)}.ad{fill:#38368e}.ae{fill:url(#g56)}.af{fill:url(#g57)}.ag{fill:#ffebed}.ah{fill:#7f9ec9}.ai{fill:#131163}.aj{fill:#c6659c}.ak{fill:#cb5f7d}.al{fill:#9f4a8b}.am{fill:#ffbcaf}.an{opacity:.6;mix-blend-mode:multiply;fill:url(#g58)}.ao{fill:url(#g59)}.ap{fill:#d2726c}.aq{opacity:.6;mix-blend-mode:multiply;fill:url(#g60)}.ar{opacity:.6;mix-blend-mode:multiply;fill:url(#g61)}.as{opacity:.5;mix-blend-mode:multiply;fill:url(#g62)}.at{fill:url(#g63)}.au{fill:url(#g64)}.av{fill:url(#g65)}.aw{opacity:.8;mix-blend-mode:multiply;fill:url(#g66)}.ax{opacity:.8;mix-blend-mode:multiply;fill:url(#g67)}.ay{fill:#34c7ff}.az{fill:url(#g68)}.aA{fill:url(#g69)}.aB{fill:url(#g70)}.aC{opacity:.6;fill:#36d1f7}.aD{fill:#744ca2}.aE{opacity:.6;mix-blend-mode:multiply;fill:url(#g71)}.aF{opacity:.3;mix-blend-mode:multiply;fill:url(#g72)}.aG{opacity:.3;mix-blend-mode:multiply;fill:url(#g73)}.aH{opacity:.3;mix-blend-mode:multiply;fill:url(#g74)}.aI{opacity:.3;mix-blend-mode:multiply;fill:url(#g75)}.aJ{mix-blend-mode:multiply;fill:#d1d4fb}.aK{fill:#e0ffff}.aL{fill:url(#g76)}.aM{fill:url(#g77)}.aN{opacity:.8;fill:url(#g78)}.aO{fill:#473da2}.aP{fill:url(#g79)}.aQ{fill:url(#g80)}.aR{fill:url(#g81)}.aS{fill:url(#g82)}.aT{fill:url(#g83)}.aU{fill:url(#g84)}.aV{opacity:.7;fill:url(#g85)}.aW{fill:#953da2}.aX{opacity:.7;fill:url(#g86)}.aY{fill:url(#g87)}.aZ{fill:url(#g88)}.b0{fill:url(#g89)}.b1{opacity:.5;mix-blend-mode:multiply;fill:#601734}.b2{mix-blend-mode:soft-light;fill:#b3d9ff}.b3{fill:#ff1d9c}.b4{fill:#6877ff}.b5{fill:#4f31e0}.b6{fill:url(#g90)}.b7{fill:url(#g91)}.b8{fill:url(#g92)}.b9{fill:url(#g93)}</style><path fill-rule="evenodd" class="a" d="m267.4 374.2q0-0.7 0.7-0.7l13.4 0.4q2 0 3.4 0.6 1.4 0.5 2.2 1.5 0.9 0.9 1.2 2.3 0.4 1.3 0.3 2.9l-0.1 3.7q0 1.6-0.5 2.9-0.4 1.3-1.3 2.2-0.9 0.9-2.3 1.4-1.4 0.4-3.4 0.4l-7.2-0.2-1.5-4.3h-0.2l-0.1 4.2-5.1-0.2zm4.7 12.7l8.6 0.3q1.4 0 2-0.6 0.7-0.6 0.7-2.3l0.1-3q0.1-1.6-0.5-2.2-0.6-0.7-2.1-0.7l-8.2-0.3q-0.2 0-0.3 0.1-0.1 0.2-0.1 0.3z"/><path class="a" d="m295.9 381.9h-0.2l-0.1 5.3q-0.1 0.4 0.3 0.4l15.1 0.4-0.2 4.7-19.7-0.6q-0.8 0-0.7-0.8l0.5-16.4q0-0.7 0.7-0.7l19.2 0.6q0.7 0 0.7 0.7l-0.1 4.7-4.8 1.6h-0.2l0.1-2.4q0-0.3-0.2-0.3l-10.2-0.3q-0.2 0-0.2 0.1-0.1 0.1-0.1 0.2l-0.1 2.3 8.4 0.2-0.1 3.7-7-0.2z"/><path class="a" d="m329.4 381.5h-0.2l0.1-1.9q0-0.3-0.3-0.3l-9.4-0.3q-0.6 0-0.8 0.2-0.2 0.2-0.2 0.6v0.4q0 0.6 0.2 0.7 0.1 0.2 0.6 0.3l11.1 1.8q1 0.2 1.8 0.6 0.7 0.3 1.1 0.8 0.5 0.5 0.7 1.3 0.1 0.7 0.1 1.7v1.4q-0.1 1.1-0.4 2-0.3 0.8-0.9 1.4-0.6 0.5-1.6 0.8-1.1 0.3-2.5 0.2l-15.9-0.5 0.1-4.6 14.3 0.4q0.6 0 0.8-0.2 0.2-0.2 0.3-0.8v-0.5q0-0.5-0.2-0.6-0.1-0.2-0.6-0.3l-10.7-1.7q-1-0.2-1.8-0.5-0.8-0.3-1.2-0.8-0.5-0.5-0.7-1.2-0.2-0.7-0.2-1.7v-1.3q0.1-1.9 1.2-3 1-1 3.4-0.9l15.9 0.5q0.8 0 0.8 0.8l-0.1 3.7z"/><path class="a" d="m336.1 393.4l0.6-17.8 5 0.1-0.5 17.9z"/><path class="a" d="m360 386.5q0-0.4 0-0.8 0-0.5-0.1-0.8v-0.2l5 0.1-0.2 8.8q-0.1 0.7-0.7 0.7l-13.4-0.4q-2-0.1-3.4-0.6-1.4-0.6-2.2-1.5-0.9-1-1.2-2.3-0.4-1.3-0.3-2.9l0.1-3.7q0-1.6 0.5-3 0.4-1.3 1.3-2.1 0.9-0.9 2.3-1.4 1.4-0.5 3.4-0.4l13.4 0.4q0.7 0 0.7 0.8l-0.1 3.8-4.8 1.6h-0.2l0.1-1.7q0-0.3-0.2-0.3l-8.6-0.2q-0.7-0.1-1.2 0.1-0.5 0.1-0.9 0.4-0.3 0.3-0.5 0.9-0.1 0.5-0.1 1.3l-0.1 3.2q-0.1 1.6 0.5 2.3 0.6 0.6 2 0.7l8.5 0.2q0.3 0 0.3-0.3z"/><path class="a" d="m375.6 376.7q0.6 0.1 0.8 0.2 0.3 0.2 0.4 0.6l6.4 13q0.2 0.3 0.5 0.4h0.3q0.3 0 0.4-0.4l0.4-13.5 4.6 0.2-0.6 17.1q0 0.7-0.7 0.7l-7.2-0.2q-0.6 0-0.8-0.2-0.3-0.1-0.5-0.5l-6.6-13.1q-0.1-0.3-0.5-0.3h-0.2q-0.4 0-0.4 0.4l-0.4 13.4-4.6-0.1 0.5-17.2q0-0.7 0.7-0.7z"/><path class="b" d="m819.1 373.1c0 171.2-138.8 310-310 310-171.2 0-310-138.8-310-310 0-171.3 138.8-310.1 310-310.1 171.2 0 310 138.8 310 310.1z"/><path fill-rule="evenodd" class="c" d="m283.5 358.3c0.5 3-0.8 8.3-7.1 14.9l26.6 64.5c5.2 0.9 10 4.3 12.4 9.5 4 8.5 0.3 18.6-8.1 22.6-8.5 3.9-18.6 0.3-22.6-8.2-2.4-5.2-1.9-11 0.7-15.7l-32.4-61.8c-9.4 0.6-14.2-1.9-16.1-4.1-0.3-0.4-2.3-5-2.3-5-5.2-14.3-0.7-28.1-0.7-28.1l4.7-2.2 7.9 20.4c6.6 3.7 13 2.4 13 2.4 0 0 5.1-4 6.5-11.4l-10.6-19.2 4.7-2.2c0 0 13.5 5.4 21.1 18.5 0 0 2.2 4.4 2.3 5.1zm25.2 92.1l-7.8-5.4-8.6 4-0.8 9.4 7.8 5.4 8.5-4z"/><path fill-rule="evenodd" class="d" d="m278.7 378.3l26.6 64.5c5.3 0.9 10.1 4.3 12.5 9.5 4 8.5 0.3 18.5-8.2 22.5-8.5 4-18.6 0.3-22.5-8.2-2.5-5.2-2-11 0.7-15.6l-32.4-61.9c-11.1 0.7-18.5-9.1-18.5-9.1-5.1-14.3-0.6-28.1-0.6-28.1l4.7-2.2 7.9 20.5c6.6 3.6 12.9 2.3 12.9 2.3v0.1c0 0 5.1-4.1 6.5-11.5l-10.6-19.2 4.7-2.2c0 0 13.5 5.4 21.1 18.6 0 0 2.9 11.9-4.8 20zm32.3 77.1l-7.7-5.4-8.6 4-0.8 9.5 7.7 5.4 8.6-4z"/><path class="e" d="m238.6 344.7l2.4 5-4.7 2.2-2.4-5z"/><path class="e" d="m260.1 334.7l2.3 5-4.7 2.2-2.3-5z"/><path class="e" d="m307.8 459.8l2.4 5.1-8.6 4-2.3-5.1z"/><path fill-rule="evenodd" class="f" d="m277.8 386.5l21.3 52.6c0 0-3.7 5.2-10.6 4.9l-26.2-50.3c0 0 5.9-7.5 15.5-7.2zm-1.2 1q-3.3 0.4-6.5 1.9c-2.8 1.3-5 3-6.3 4.1l26.2 49.3q1.9-0.3 3.7-1.1c1.4-0.7 2.6-1.5 3.3-2.2z"/><path class="e" d="m297 439.5l2.1-0.4c0 0-3 5.3-10.6 4.9l1.5-1.2c0 0 3.8-0.4 7-3.3z"/><path class="g" d="m269.2 388.4c5.2-2.5 8.6-1.9 8.6-1.9l-1.2 1c-8.3 1.4-12.8 6-12.8 6l-1.5 0.2c0 0 1.7-2.9 6.9-5.3z"/><path class="h" d="m255.4 389.1c0 0 12.6-2.2 23.3-10.8l3.4 8.2c0 0-3.9-3.8-12.3-0.3-9.9 4-9.4 12-9.4 12z"/><path class="i" d="m305.3 442.8l-3 3.1-25.4-61.2c0 0 2.8 0.1 5.2 1.8z"/><path class="j" d="m282.1 386.5c0 0-2.6 8.2 5 12.1z"/><path class="k" d="m663.5 782h-94c-9.9-54.6-32.8-125.7-32.8-125.7-5.5-3.3-16.4 0.7-16.4 0.7l-34.3 125h-85.9c-4.6-77.1 37.6-164.7 37.6-164.7-0.1-0.3-1.5-3-1.1-4.8 0.1-0.7 1.6-2.2 3.2-3.7 2.3-2.1 5.1-4.2 5.1-4.2l160.2-1c0 0 1.6 0.8 3.7 2 3.5 2.2 8.2 5.4 8.2 7.8 0 3.3-1.3 5.5-1.6 6l-0.1 0.1c34.4 64.8 48.2 162.5 48.2 162.5z"/><path class="l" d="m479.7 725.9c-11.5 49.8-36.5 86.6-55.8 82.2-19.3-4.5-25.6-48.5-14.1-98.3 11.5-49.9 36.4-86.7 55.7-82.2 19.3 4.4 25.6 48.4 14.2 98.3z"/><path class="m" d="m645.6 707.3c13.8 49.2 9.6 93.5-9.5 98.8-19.1 5.4-45.7-30.2-59.5-79.5-13.8-49.2-9.5-93.5 9.5-98.9 19.1-5.3 45.7 30.3 59.5 79.6z"/><path class="n" d="m474.8 782.1l-0.9-0.2c10.9-64.4 38.6-118.4 38.9-118.9l0.1-0.2 7.1-6.2 0.6 0.8-6.9 6.1c-1.3 2.4-28.2 55.5-38.9 118.6z"/><path class="o" d="m582.2 782.1c-10.7-63.1-38.3-116.7-39.5-119.1l-6.3-5.6 0.7-0.8 6.4 5.9c0.3 0.5 28.8 55 39.7 119.4z"/><path class="p" d="m617 613.4c0 3.3-1.3 5.5-1.6 6l-0.1 0.1c-33.3 7.5-58.7 38.6-58.7 38.6 18.2 34.9 48.5 123.9 48.5 123.9h-35.6c-9.9-54.6-32.8-125.7-32.8-125.7-5.5-3.3-16.4 0.7-16.4 0.7l-34.3 125h-22.3c8-52.4 31.5-116.3 31.5-116.3-23.1-26.9-57.5-48.4-57.5-48.4l-4.1-2.5 3-2.3c14.8 14.3 62.8 32.9 64.2 33.5l-61-37.2c2.3-2.1 5.1-4.2 5.1-4.2l160.2-1c0 0 1.6 0.8 3.7 2l-43.8 24.1z"/><path class="q" d="m536.7 656.3l18.7-12.2-4.4 12.2-3.3 36.5z"/><path class="r" d="m515.4 674.9l-3.2-12.6-53.1-35.1 41.7 18.8 19.5 11z"/><path class="s" d="m573.9 281.3c0.1 0.9 0.2 1.3 0.2 1.3q-1.4 6.1-3.3 11.3c-3.9 11.3-8.8 19.3-12.4 24.3-3.2 4.3-5.5 6.3-5.5 6.3-29.2-9.1-43.5-37.7-49.1-51.9q0-0.1 0-0.2c-1.1-2.7-1.8-4.8-2.2-6.2q0 0 0 0c-0.4-1.2-0.5-1.8-0.5-1.8q0.1-0.4 0.3-0.7l0.1-0.1c0.5-1 0.9-2 1.4-3 3.8-8.4 6.3-16.2 8-22.4 1.4-5.2 2.2-9.2 2.5-11.4 0.2-1.1 0.3-1.7 0.3-1.7l13.6 7.2 46.8 24.8c-0.7 4.3-0.9 8.3-1 11.9 0 2.5 0.1 4.7 0.2 6.6 0.2 2.3 0.4 4.2 0.6 5.4 0 0.1 0 0.2 0 0.3z"/><path class="t" d="m560.9 327.7c-2.7 2.7-5.9 5.1-9.7 7.1q-0.1 0-0.2 0.1 0 0-0.3-0.2c-1-0.6-4.5-2.7-9.2-6.3-12.2-9.2-32.7-27.8-38.5-52.9q0-0.1 0-0.1c-0.7-3-1.2-6.1-1.4-9.2q0 0 0 0-0.1-1.3-0.2-2.5c0 0 4.1 9.5 11.1 19.8 8.3 12.1 20.7 25.4 35.6 25.4 12.8 0.1 19.4-8.7 22.7-16.8 1.4-3.4 2.3-6.7 2.7-9.2q0 0 0 0 0.2-1.1 0.4-1.9 0-0.4 0.1-0.8c0.1-0.9 0.1-1.4 0.1-1.4 0 0 5 30.7-13.2 48.9z"/><path class="u" d="m560.9 327.7c-2.7 2.7-5.9 5.1-9.7 7.1h-0.2l-0.3-0.1c-1-0.6-4.5-2.7-9.2-6.3-12.2-9.2-32.7-27.8-38.5-52.9q0-0.1 0-0.1c-0.7-3-1.2-6.1-1.4-9.2q0 0 0 0-0.1-1.3-0.2-2.5c0 0 4.1 9.5 11.1 19.8 0 0 8.1 22.2 25.6 33.2 8.7 5.5 15.4 4.7 20.3 1.5 4.8-3.2 8-8.9 9.9-13.1 1.8-4.3 2.4-8.2 2.5-11.2q0-1 0-1.8c1.4-3.4 2.3-6.7 2.7-9.2q0 0 0 0 0.2-1.1 0.4-1.9 0-0.4 0.1-0.8c0.1-0.9 0.1-1.4 0.1-1.4 0 0 5 30.7-13.2 48.9z"/><path class="v" d="m673.2 509.1q-0.3 0.1-0.3 0.1c-1.6 0.2-6.7-0.9-13.4-6.7q0 0-0.1-0.1 0 0-0.1 0c-5.6-4.9-12.3-13.1-19-26.5-13.4-26.8-17.2-44.7-17.8-47.8l-0.1-0.5-7.8 12.4c-5.3 16-15.4 81.9-15.2 84.8 0.2 2.8 8.9 16.6 8.7 18.3q0 0 0 0.1c-0.2 1.7-4.2 5.5-5.3 9.6-0.7 2.7 4.6 11.4 8.3 17.8v0.1c2 3.3 3.5 6.1 3.5 7.1 0 3-9.5 17.8-9.5 17.8v8l-0.2 0.1-0.4 0.4-0.4 0.3c-3.6 2.9-18.8 12.2-66.5 14.7-56.5 3-94.1-15.1-94.1-15.1l2.8-7.8c0 0-2.6-2.3-2.8-3.4-0.2-1.2 2-3.8 2-3.8 0 0-5.6-3-5.6-6.8 0-3.8 11.3-15.6 11-25.6-0.4-10.1-9.1-19-10.3-24.6-1.1-5.7 14.8-19.7 14.8-19.7-13.6-43.2-16.3-101.2-16.3-101.2l-2.6-3.1c0 0-16.3 37.2-31.1 55.4-1.8 2.1-3.6 4.3-5.6 6.3-4.1 4.5-8.5 8.7-12.7 12.3-10.2 8.9-19.5 14.8-21.9 14.3-3.8-0.7-18.9-30.7-18.2-61.4 0.3-14.6 9.1-30.9 18.2-44q1.5-2.1 3-4.1c6.5-8.8 12.7-15.8 15.7-18.9 1.1-1.3 1.8-1.9 1.8-1.9 0 0-2.1-6.7-3.5-12.5q-0.1-0.3-0.1-0.5 0-0.1-0.1-0.2 0-0.1 0-0.1c-0.8-3.6-1.4-6.7-0.9-7.4 1.3-2.1 8.6-4.3 9.9-5.8 1.2-1.6 6.5-27.1 10.6-29.9 3.9-2.6 10.7-4.6 33.4-13.5q1.7-0.6 3.5-1.4c25.5-10.1 50.5-22.3 50.5-22.3l9.6-11.8h4.3l-1.4 3-0.1 0.1q1 4.5 2.4 8.7 0 0.1 0 0.2c13.2 41.7 47.2 55.1 47.2 55.1 23.6-17.4 23.1-45.1 23.1-45.1v-3.8l4.5 1.3 3 7.2c0 0 5.1 8 25.4 16.9 3.5 1.6 7.2 3.5 11.1 5.7 18.6 10.6 39.2 26.9 40.8 30.3q0.2 0.5 0.5 1.7v0.1c2.2 8.5 6.7 40.6 10.9 52 2.6 7.2 6.7 11.1 9.7 13.1q0 0.1 0 0.1c2.3 1.5 3.9 2 3.9 2q0.5 2.6 0.9 5.2c8.7 54.8-7.8 92.1-11.6 94.7z"/><path class="w" d="m455.6 405.5l-16.5 5.6-2.6-3.1c0 0-16.3 37.2-31.1 55.4-1.8 2.1-3.6 4.3-5.6 6.3-4.1 4.5-8.5 8.7-12.7 12.3l-12.5-54.1-6.4-41.1c6.5-8.8 12.7-15.8 15.7-18.9 1.1-1.3 1.8-1.9 1.8-1.9 0 0-2.1-6.7-3.5-12.5q-0.1-0.2-0.1-0.5 0-0.1-0.1-0.2 0-0.1 0-0.1c-0.8-3.6-1.4-6.7-0.9-7.4 1.3-2.1 8.6-4.3 9.9-5.8 1.2-1.6 6.5-27.1 10.6-29.9 0 0-2.7 24.5 11.4 55.6l6.8 9.6 19.9 16.1c0 0 7.6 10 15.9 14.6z"/><path class="x" d="m407.9 449.9c-3.5 26.2-42.7 46.4-42.7 46.4-8.7 0-18.4-15.1-27.3-33.8-8.8-18.7-9.4-72.4-9.8-75.8-0.5-3.3-5.4-9.9-5.7-12.8-0.3-2.8 7.9-8.7 7.9-8.7v-0.1l-0.1-0.2c-0.8-1.8-5.7-12.2-5.3-14.1 0.3-2.1 9.6-6.6 9.6-6.6l0.6 10.2c0 0 21.5-4.1 28.8-20.8l1.3-5.1 3.6 2.4v22c0 0 0.8 3.4 1.9 3.4 1.1 0 9.5-4.2 11.3-3.6 1.8 0.6 3.5 12.3 5.9 13.8 2.3 1.6 8.6 5.9 9.5 8 0.4 0.9 0.5 4.3 0.5 8.3 0.1 4.9 0.1 10.6 0.8 13.9 1.4 5.8 12.7 26.9 9.2 53.2z"/><path class="y" d="m765.9 427.4c-1.8 2.7-10.6 8.6-12.9 10.8-2.3 2.3 0 9.8 0 9.8-37.1 39.4-75.9 59.1-79.8 61.1q-0.3 0.1-0.3 0.1c-23.3-15.7-21.3-41.5-13.6-63.2 7.4-20.9 20.1-38.1 20.7-38.8q0 0 0 0c0.4-0.2 7.1-3 11.9-3.3 1.5-0.1 3 0.5 4.3 1.3 2.9 1.8 5.3 4.6 7.6 3.4 3.4-1.7 11.1-19.8 16.2-20.3 3.7-0.3 8.7 3.4 12 5.5 1.5 0.9 2.6 1.5 3.2 1.4 1.9-0.5 8.3-8.3 8.8-8.5 0.5-0.2 3.5 2 3.5 2l-2.1 2.5c3.2 18.2 13.5 30.5 13.5 30.5l7-10.2c0 0 1.8 13.1 0 15.9z"/><path class="z" d="m574 280.5q0 0.4-0.1 0.8-0.1 0.8-0.4 1.6 0 0 0 0c-2.4 8.9-12 17.9-24.1 13.5-13.3-4.7-38.5-58.2-38.5-58.2l2.5-11.4 59.9 48.8 0.7 4.6z"/><path class="A" d="m372.8 287.9l-20.5 23.4-31.3 1.1-3.3-12.7c-0.4-14.3 25-38.3 25-38.3l4.4 1.3 9.1 12.5h4.2c0 0 2.2-29.7-0.6-42.1-2.8-12.4 3.4-27.8 6-29.3 2.7-1.5 6.3 0 6.3 0 0 0 2.1 16.9 0.4 31.8-1.6 14.9 2.1 35.1 2.1 35.1z"/><path class="B" d="m342.7 261.4c0 0 0.7 15.9 4.3 29.5 0 0-0.6 5.6-7.2 6l-1.6-1.8c0 0-1.1 6.4-6.9 6.8l-5.5-5.5 1.4 4.6c0 0-2 4.8-7.2 4.6 0 0-8.7-6.8-9.3-15.7l8.7-7.3v-5.6l10.2-7.2 0.2-4.1c0 0 6-4.4 12.9-4.3z"/><path class="C" d="m373.2 261.4l-2.5 14-1.9 5.9c-19.9 12.2-28.6 23.3-28.6 23.3 4.1-8.6 21.7-23.3 21.7-23.3l-1.4-2.6c-9.8 0.2-15.2 4.8-15.2 4.8l-1.5-9.6 1.5-7.7 3.1 10.7 3.6-1.7c-0.2-5.4-4.9-12.5-4.9-12.5l9.1 12.5h4.2l0.3-35.8c0 0 6.3-1.1 8.5-2.6 2.2-1.6 3.7-5.5 3.7-5.5-2.1 9.9 0.3 30.1 0.3 30.1z"/><path class="D" d="m387.7 293.6c-1.6 4.9-18.8 25.4-20.7 29.8-1.9 4.4-3.1 10.2-3.1 10.2-8.4 18.3-28.8 20.8-28.8 20.8l-1-16.5c0 0-10.9-6.3-12.8-9.7v-0.1l-0.2-0.6c-0.6-3.2-0.1-15.1-0.1-15.1l19.2-7.8c8.3-10.8 28.6-23.3 28.6-23.3l1-5.7c-14.6-7.1-12.2-28.8-9.7-31.5 2.5-2.6 7-2.6 7-2.6 0 0 5.3 17.4 8.7 25.6 3.4 8.1 13.5 21.6 11.9 26.5z"/><path class="E" d="m329.8 265.7c0 0 2.1 19.9 8.4 29.4 0 0-8-9.9-8.6-25.3z"/><path class="E" d="m319.4 277c0 0 2 16 11.9 24.9 0 0-8.7-4.3-11.9-19.3z"/><path class="F" d="m365.2 328.5c-7.4 23.9-30.1 25.9-30.1 25.9l-1-16.5c13.9 2.3 35.5-18.7 35.5-18.7-1.7 2.4-4.4 9.3-4.4 9.3z"/><path class="G" d="m827.7 347.8c0 0-19.9 36.4-43.2 47.5h-7.9l-18.4 27.9c0 0-11.9-7.5-12.8-32 0 0 4.2-4.3 5.2-9.2 0 0-6.6-5.2-8.3-8.9-1.8-3.8-2.4-15.2-3.7-19.9-1.3-4.7-12-14.4-14.4-15.6-2.4-1.3-13.3-1.9-13.3-1.9 0 0-1.5-4 0-5.8 1.6-1.9 18.5-8.5 27.7-2.2 0 0 0.6 4.8 1.6 7.3 1.1 2.6 9.1 11.5 10.4 11.5 1.3 0 6.7-4.5 9.1-8.1 2.3-3.4 14.5-29.7 17.5-38.6q0-0.1 0.1-0.3c0-0.1 0.1-0.2 0.1-0.4q0-0.1 0.1-0.2 0-0.1 0-0.1c2.3-7.7 15.5-22.5 22.6-26.5 0 0 3-0.8 4.7 3 0 0-5.7 16.2-11.6 25.8-1 1.6-2.1 3.5-3.2 5.5q0 0-0.1 0c-5 9.3-10.7 21.5-11.5 23.3l-0.1 0.2 3.1 1.6 8.6-8.1 8.7-8.3 20.1 21.2-2 2.6-6.2 8 3.1 0.6 7.4-8.2z"/><path class="H" d="m823.1 355.5l-6.4 9.4c0 0-34.9-27-42.5-29.2-7.6-2.3-10.3-0.8-10.3-0.8l-7.9 10c0 0 14.4 12.7 15.7 29.9 0 0-4.8-21.7-21.1-28.3 1.3 0 6.7-4.5 9.1-8.1 2.3-3.4 14.5-29.7 17.5-38.6-0.4 1.5-0.9 4.5 0.3 6.8 1.7 3.2 11.8 0.2 12.4 0q0.1 0 0.1 0l-11.6 23.3-0.1 0.2 3.1 1.6 8.6-8.1-4.3 10 31.1 5.5-6.2 8 3.1 0.6z"/><path class="I" d="m798.7 315.3c0 0 6.1-0.9 10 7l-0.9 2.5c0 0 5.9 1.2 11.6 10.7 0 0-5 9.3-17.5 13.4 0 0-5.8-1.6-6.8-6.5l1.1-3.2-4.5 3.4c0 0-5.5 1.7-7.9-6.4z"/><path class="J" d="m818.2 354.1c-5.2-0.9-5.6-5.2-5.6-5.2l12-13.2c6.2 3.8 4.9 9.6 4.9 9.6-3.1 6-11.3 8.8-11.3 8.8z"/><path class="K" d="m742.3 373.1c0 0 13.9 15.5 34.3 22.2l-8.8 13.4-18.4-23.3 1.2-3.4c0 0-7.3-5.5-8.3-8.9z"/><path class="E" d="m810.5 326c-4.2 8.7-15.4 16.4-15.4 16.4l1.1-3.2c5.8-4.8 11.6-14.4 11.6-14.4 1.3 0.2 2.7 1.2 2.7 1.2z"/><path class="L" d="m765.9 427.4c-1.8 2.7-10.6 8.6-12.9 10.8-2.3 2.3 0 9.8 0 9.8-37.1 39.4-75.9 59.1-79.8 61.1q-0.3 0.1-0.3 0.1c-3 0.4-17.8-3.8-32.6-33.3-13.4-26.8-17.2-44.7-17.8-47.8l-0.1-0.5 3.2-4.4 4.9-54.6 3.4 11c12.9-15.5 25-39.4 25-39.4l0.5 1.7v0.1c2.2 8.5 6.7 40.6 10.9 52 2.6 7.2 6.7 11.1 9.7 13.1v0.1c-11.9 10.8-17.8 26.4-20.7 38.8-2.6 11.3-2.8 20-2.8 20 0 0 3.3-15.4 13.6-33.9 3.8-6.7 9.3-12.8 14.7-17.7 4.1-3.7 8.1-6.8 11.4-9.2 2.9 1.8 5.3 4.6 7.6 3.4-15.6 23.4-15.2 69.8-0.6 61 14.7-8.9 18-27.6 18-27.6-3.4-22.9-2.4-48.7 0.4-53.6 3.4 0.1 13 6.9 13.6 6.8-0.9 26.9 11.7 44.8 11.7 44.8l8.4-12.9c-12.2-20.4-11.3-40.4-11.3-40.4 0.5-0.2 3.5 2 3.5 2l-2.1 2.5c3.2 18.2 13.5 30.5 13.5 30.5l7-10.2c0 0 1.8 13.1 0 15.9z"/><path class="M" d="m605.1 595.6v8l-0.2 0.1-0.4 0.4-0.4 0.3c-3.6 2.9-18.8 12.2-66.5 14.7-56.5 3-94.1-15.1-94.1-15.1l2.8-7.8c0 0-2.6-2.3-2.8-3.4-0.2-1.2 2-3.8 2-3.8 0 0-5.6-3-5.6-6.8 0-3.5 9.2-13.4 10.7-22.7q0.3-1.5 0.3-2.9c-0.4-10-9.1-18.9-10.3-24.6q0 0 0 0c-1.1-5.7 14.8-19.7 14.8-19.7-13.6-43.2-16.3-101.2-16.3-101.2l-2.6-3.1c0 0-16.3 37.2-31.1 55.4-14.8 18.2-36.4 33.7-40.2 32.9-8.7 0-18.4-15.1-27.3-33.8-8.8-18.7-9.4-72.4-9.8-75.8-0.5-3.3-5.4-9.9-5.7-12.8 9.5 16.3 24.6 11.5 24.6 11.5-11 0.3-16.7-20.2-16.7-20.2v-0.1l-0.1-0.2-5.3-14.1c0.6 0.7 13.1 14.7 25.2 6.1 12.3-8.9 18.7-26 18.7-26v22c0 0 0.8 3.4 1.9 3.4-0.7 10.1-2.9 22.5-5.5 34.6-5.6 26.3-13.3 51.6-13.3 51.6 0 0 20.9-11.3 28.2-40.1 3.5-13.8 4.1-25.8 3.8-34.5-0.3-7.5-1.3-12.6-1.7-14.4q-0.1-0.3-0.1-0.5 0-0.1-0.1-0.2 0 0 0-0.1l2 4.3 3.9 9.5c4.4 37-4.8 92.7-4.8 92.7 13.4-16.7 16.2-53.6 15.6-62.5-0.2-4.3-0.6-9.6-0.8-13.9-0.3-4.7-0.5-8.3-0.5-8.3l27.4 16.4-5-16.1 19.9 16.1c0 0 18 21.6 36.4 24.1 18.5 2.5 86.2 1 86.2 1 0 0-58.9 3.8-76.1 8.8-17.2 5.1-20.4 10.9-20.4 10.9 12.4 63.2 81.1 84.5 83.3 85.1-62.4-9.3-91.4-62.4-91.4-62.4 0 0-1 29.9 3.8 41.2 4.8 11.4 33.1 39.2 69.4 45q4.6 0.7 9.1 0.9c30.7 1.4 56.1-14.2 58.7-15.9q0.2-0.2 0.2-0.2 0 0-0.1 0.1c-0.9 1.5-13.5 19.2-64.3 21.2q-4.6 0.1-9-0.1-0.1 0-0.1 0c-47-1.9-71-33.3-71-33.3 0 0-17.4 9.4-6.3 23.2q0.2 0.3 0.3 0.5c3.3 3.8 10.5 8.4 19.1 13.1q0.3 0.3 0.7 0.4c10.3 5.7 22.4 11.6 31.8 16.5q0 0 0.1 0c5.7 3 10.4 5.6 13 7.5q0.1 0 0.1 0c2.6 1.9 3.1 3.2 0.6 3.5-13.2 1.5-62.9-9.4-65-6.3-2 3 2.5 10.8 2.5 10.8 45.7 22.7 143.4 11.5 146.5 11.2-81.8 20.9-148.7-5.6-148.7-5.6l2.2 7.8c0 0 36.4 12.6 79.4 13.7 42.9 1 69.7-10 69.7-10z"/><path class="N" d="m571.6 415.7c0 0 32.5 1.8 54 7.5l-11 16.8c0 0-16.7-14.7-43-24.3z"/><path class="O" d="m600.2 517.8c0 0-9.7 15.3-37.9 19.8-28.2 4.6-39.7 1.2-39.7 1.2 0 0 19.2-0.8 39.2-8.6 19.9-7.8 40.2-24.8 40.2-24.8z"/><path class="P" d="m611.1 570.6v0.1c-37.5 9.7-85.2-4.3-84.8-6 0.4-1.7 13 0.8 42.4-5.1 28.5-5.7 38.8-15.8 39.4-16.4-0.2 1.7-4.2 5.5-5.3 9.6-0.7 2.7 4.6 11.4 8.3 17.8z"/><path class="Q" d="m509.1 420.8c-32.1 3.3-40.7 12.2-40.7 12.2-9 1.2-29.3-21.9-29.3-21.9l-2.6-3.1c0 0-16.3 37.2-31.1 55.4-1.8 2.1-3.6 4.3-5.6 6.3l2.1-4.7c0 0 3.5-1.6 4.5-19.7 1-18-7.6-45-7.7-48.6 0-3.7-1.3-22.2-1.3-22.2l27.4 16.4-5-16.1 19.9 16.1c0 0 7.9 11.7 27.6 21.5 18.6 9.3 39.5 8.5 41.8 8.4z"/><path class="R" d="m436.5 408l19.1-2.5c0 0 7.6 5.1 22.9 11.3l-12.7 18.9c0 0 5 26.9 19.6 42 0 0-38.6-21.4-44.1-39.5z"/><path class="S" d="m344.4 359c12.7-2.9 24.4-28.1 24.4-28.1v22c0 0-10.8 33.4-21.8 32.5-11.1-0.8-16.7-20.2-16.7-20.2l-5.4-14.4c0 0 6.8 11 19.5 8.2z"/><path class="T" d="m401.6 309.6c-3.1 20.6 11.4 55.6 11.4 55.6-12.2-6-22-25.7-22-25.7 5.3-26.6 10.6-29.9 10.6-29.9z"/><path class="U" d="m630.5 368.6l3.4 11 3.4 90.1c0 0-8.7-17.1-14.8-41.6l3.1-4.9c0 0 5.4-34 4.9-54.6z"/><path class="V" d="m735.2 395.2c0 0-1.9 44.2 16.9 48l0.9 4.8c0 0-24.3-0.9-17.8-52.8z"/><path class="W" d="m695.4 427.9c0 0-1.8-8.7-9.6-6.3-7.8 2.3-22.3 24-22.3 24 9.1-23.6 32.7-40.4 32.7-40.4 6.9 5 7.6 3.4 7.6 3.4-5.3 7.1-8.4 19.3-8.4 19.3z"/><path class="X" d="m322.4 373.9c0 0 9.1 16.8 26.1 11.6 0 0-10.2 6.8-20.4 1.2 0 0-6.4-10.9-5.7-12.8z"/><path class="Y" d="m387.9 398.6c-4.8 25.2-26 36.1-26 36.1 32.6-35.2 20.1-82 20.1-82 0 0 10.7 20.7 5.9 45.9z"/><path class="Z" d="m601.3 354.6c-11.6 13.1-36.8 22.4-36.8 22.4 0 0 20.1-10.3 30.2-25.4 10.2-15.2 11.6-36.3 11.6-36.3 0 0 6.6 26.2-5 39.3z"/><path class="a0" d="m477.4 283.5c0 0 0 17.7 5.7 35.7 5.6 18 55 49.4 55 49.4 0 0-50.9-21.1-60.7-40.1-9.9-19 0-45 0-45z"/><path class="a1" d="m619 374.9l-1.7 25.9c-74.3-4.9-140.5-4.4-140.5-4.4v-28.8c77.6-0.4 142.2 7.3 142.2 7.3z"/><path fill-rule="evenodd" class="a2" d="m489.1 374.2q0-0.7 0.7-0.7l13.4 0.4q2 0 3.4 0.6 1.4 0.5 2.2 1.5 0.8 0.9 1.2 2.3 0.3 1.3 0.3 2.9l-0.1 3.7q-0.1 1.6-0.5 2.9-0.4 1.3-1.3 2.2-0.9 0.9-2.3 1.4-1.4 0.4-3.4 0.4l-7.3-0.2-1.5-4.3h-0.2l-0.1 4.2-5-0.2zm4.6 12.7l8.6 0.3q1.5 0 2.1-0.6 0.6-0.6 0.7-2.3l0.1-3q0-1.6-0.6-2.2-0.6-0.7-2-0.7l-8.2-0.3q-0.2 0-0.3 0.1-0.1 0.2-0.1 0.3z"/><path class="a2" d="m517.5 381.9h-0.1l-0.2 5.3q0 0.4 0.3 0.4l15.1 0.4-0.1 4.7-19.8-0.6q-0.7 0-0.7-0.8l0.5-16.4q0-0.7 0.8-0.7l19.2 0.6q0.7 0 0.7 0.7l-0.2 4.7-4.7 1.6h-0.2l0.1-2.4q0-0.3-0.3-0.3l-10.1-0.3q-0.2 0-0.3 0.1 0 0.1 0 0.2l-0.1 2.3 8.3 0.2-0.1 3.7-7-0.2z"/><path class="a2" d="m551.1 381.5h-0.2v-1.9q0.1-0.3-0.2-0.3l-9.5-0.3q-0.5 0-0.7 0.2-0.2 0.2-0.2 0.6v0.4q0 0.6 0.1 0.7 0.2 0.2 0.7 0.3l11 1.8q1.1 0.2 1.8 0.6 0.7 0.3 1.2 0.8 0.5 0.5 0.6 1.3 0.2 0.7 0.2 1.7l-0.1 1.4q0 1.1-0.3 2-0.3 0.8-0.9 1.4-0.7 0.5-1.7 0.8-1 0.3-2.5 0.2l-15.9-0.5 0.1-4.6 14.3 0.4q0.7 0 0.9-0.2 0.2-0.2 0.2-0.8v-0.5q0-0.5-0.1-0.6-0.2-0.2-0.6-0.3l-10.7-1.7q-1.1-0.2-1.8-0.5-0.8-0.3-1.3-0.8-0.5-0.5-0.7-1.2-0.2-0.7-0.1-1.7v-1.3q0.1-1.9 1.1-3 1.1-1 3.5-0.9l15.9 0.5q0.8 0 0.7 0.8l-0.1 3.7z"/><path class="a2" d="m557.8 393.4l0.5-17.8 5.1 0.1-0.5 17.9z"/><path class="a2" d="m581.6 386.5q0.1-0.4 0-0.8 0-0.5 0-0.8v-0.2l5 0.1-0.3 8.8q0 0.7-0.6 0.7l-13.5-0.4q-2-0.1-3.4-0.6-1.3-0.6-2.2-1.5-0.8-1-1.2-2.3-0.3-1.3-0.3-2.9l0.2-3.7q0-1.6 0.4-3 0.5-1.3 1.4-2.1 0.8-0.9 2.3-1.4 1.4-0.5 3.4-0.4l13.4 0.4q0.7 0 0.6 0.8l-0.1 3.8-4.7 1.6h-0.2v-1.7q0-0.3-0.2-0.3l-8.5-0.2q-0.8-0.1-1.3 0.1-0.5 0.1-0.8 0.4-0.3 0.3-0.5 0.9-0.2 0.5-0.2 1.3l-0.1 3.2q0 1.6 0.6 2.3 0.6 0.6 2 0.7l8.5 0.2q0.3 0 0.3-0.3z"/><path class="a2" d="m597.3 376.7q0.6 0.1 0.8 0.2 0.2 0.2 0.4 0.6l6.4 13q0.1 0.3 0.4 0.4h0.3q0.4 0 0.4-0.4l0.4-13.5 4.6 0.2-0.5 17.1q0 0.7-0.7 0.7l-7.3-0.2q-0.5 0-0.7-0.2-0.3-0.1-0.5-0.5l-6.7-13.1q-0.1-0.3-0.4-0.3h-0.3q-0.3 0-0.4 0.4l-0.4 13.4-4.6-0.1 0.6-17.2q0-0.7 0.7-0.7z"/><path class="a3" d="m581.6 287.3c-1.6 18.6-7.2 31.6-13.3 40.3-8.3 12-17.3 16.1-17.3 16.1-9-3.9-16.8-8.8-23.5-14.1-28.5-22.8-37.7-54.4-38.4-57 12 29 29.7 46.7 43.1 56.6 10.8 8 18.8 11 18.8 11v-9.3q-3.2-1.2-6.2-2.7c-23.6-11.9-36-36.7-41.8-52.7q0-0.1 0-0.1c-3.2-8.7-4.4-14.8-4.4-14.8h4.3l-1.4 3-0.1 0.1q1 4.5 2.4 8.7 0 0.1 0 0.2c13.2 41.7 47.2 55.1 47.2 55.1 23.6-17.4 23.1-45.1 23.1-45.1v-3.8l4.5 1.3z"/><path class="a4" d="m735.2 395.2c0 0-6.4-1.7-8.7 1.9-2.2 3.6-5.3 44.9-5.3 44.9-6-32.6 0.4-53.6 0.4-53.6 3.6 1.2 13.6 6.8 13.6 6.8z"/><path class="a5" d="m659.3 502.4c-5.6-4.9-12.3-13.1-19-26.5-13.4-26.8-17.2-44.7-17.8-47.8l3.1-4.9 4.3-41.2 4-2.4c0 0 14.2-15.7 25-39.4q0.2 0.6 0.5 1.7v0.1c2.2 8.5 6.7 40.6 10.9 52 2.6 7.2 6.7 11.1 9.7 13.1 0 0-24.6 36.6-25.8 62.6-1.1 23.7 4.2 31.5 5.1 32.7z"/><path class="a6" d="m513.2 578.5c0 0-44.4-7.3-62.5-18.9q0 0-0.1-0.1 0.3-1.5 0.3-2.9c-0.4-10-9.1-18.9-10.3-24.6 0.2 0.6 1.5 3.6 7.8 9 4 3.4 10 7.8 19.1 13.1q0.3 0.3 0.7 0.4c12.8 7.6 23.8 12.7 31.8 16.5q0 0 0.1 0c7.2 3.4 11.8 5.6 13 7.5q0.1 0 0.1 0z"/><path class="a7" d="m608.1 543.2c-0.2 1.7-4.2 5.5-5.3 9.6 0 0-16.3 17.2-76.5 11.9 0.4-1.7 13 0.8 42.4-5.1 28.5-5.7 38.8-15.8 39.4-16.4z"/><path class="a8" d="m618.1 309.9l-38.5 12.5-11.3 5.2v0.1h-7.4-9.9l-6.2 0.5-3.3 0.2-9.3 0.8-4.7 0.4-46.2-16.8-8.3-2.9-38-13.8q1.7-0.6 3.5-1.4c25.5-10.1 50.5-22.3 50.5-22.3l9.6-11.8h4.3c3.8-8.4 6.3-16.2 8-22.4l2.5-11.4c0.2-1.1 0.3-1.7 0.3-1.7l13.6 7.2 45.8 36.7c0 2.5 0.1 4.7 0.2 6.6l0.7 4.6c0.1-0.9 0.1-1.4 0.1-1.4l4.5 1.3 3 7.2c0 0 5.1 8 25.4 16.9 3.5 1.6 7.2 3.5 11.1 5.7z"/><path class="a9" d="m588.8 274.8c0 0-18 4-37.8-5.6-19.8-9.6-36.5-37.9-37.5-44.9-1-7.1 7.6-25.6 7.6-40 0-14.4-7.1-39.1 4.8-52.5 11.9-13.4 66.4-15.4 84.1 1.8 0 0 5.5 13.7 5.5 21.5 0 1.9-0.3 4.6-0.8 7.8-0.2 1.2-0.4 2.5-0.6 3.8-1.6 9.4-3.8 20.9-2.8 25.9 0.4 1.8 1 3.4 1.6 4.9v0.1c2.2 5 5.4 9 6 13.4 0.8 5.7-6.9 46.1-30.1 63.8z"/><path class="aa" d="m515.2 213.2c0 0-11.1 1.4-14.1-7.9-3.1-9.3-5.7-29.2-5.7-29.2 1.1-5.5 8.3-8.3 8.3-8.3 12.3 0.2 17.2 12.5 17.2 12.5 4 18.1-5.7 32.9-5.7 32.9z"/><path class="ab" d="m573.5 219.2l0.6 1.1c0 0 5.1 5.2 16.9 7.5 11.8 2.2 13.5-4.3 13.5-4.3 4.2 1.3 5 4.1 5 4.1 0 0-1.9-2.5-3.7-2.1-1.7 0.3-7.2 7.3-15.3 5.6-8.2-1.7-14.6-8-16.4-9.3-1.7-1.3-5.8-1-5.8-1 1.9-0.9 5.2-1.6 5.2-1.6z"/><path class="ac" d="m587.9 147.2c0.5 19-8.3 44.7-8.3 44.7-11.7 3-32-6.8-32-6.8l-7.9 5.5c0 0 10.8 13.3 12.7 27.8l-5.1 4.5-18-9.6-7.4-43.5 2.1-32.9 16.7-13.4 68.4 1.1 9.9 20-4.3 6.5c0 0-5.3-14.6-28.6-14-23.3 0.6-35.1 21.2-35.1 21.2l-0.2 1.3c7.1-8 37.1-12.4 37.1-12.4z"/><path class="ad" d="m549.8 161.1c0 0 1.1-7.4 13.7-10.4 14-3.3 25.4-6.1 25.4-6.1 0 0-2.5 8.1-7.2 11.2 0 0-14.8-0.5-22.3 1.2-7.5 1.7-9.6 4.1-9.6 4.1z"/><path class="ad" d="m614.1 166.7c0 0 0.4-2.9-2.5-3-4.2-0.1-8.9 6-8.9 6 4.8-13.1 12-18.6 12-18.6 2.3 7.8-0.6 15.6-0.6 15.6z"/><path class="ae" d="m554.5 182.2c0 0 0.8-15.7 16.1-19.7 0 0 5.5 7.1 6.1 15.1 0 0-8.2-1.5-22.2 4.6z"/><path class="af" d="m598.5 188.4c0 0 1.2-12.5 8.4-17.1 0 0 4.9 3.7 4.4 14.1 0 0-4.3-1.5-12.8 3z"/><path class="ag" d="m575.8 177.5c0.3 8-2.4 12-2.4 12-13.9-1.2-18.9-7.3-18.9-7.3 8.5-5.9 21.3-4.7 21.3-4.7z"/><path class="ag" d="m611 185.4c-0.2 6.2-2.7 10.1-2.7 10.1-7.7-0.7-9.8-5.2-9.8-5.2v-1.9c7.6-4.3 12.5-3 12.5-3z"/><path class="ah" d="m575.8 177.5c0.7 7.8-2.4 12-2.4 12-2.6-0.1-7.2-1.2-7.2-1.2-0.3-6.8 3.2-11.1 3.2-11.1 2.4-0.5 6.4 0.3 6.4 0.3z"/><path class="ah" d="m611 185.4c0.1 6.1-2.7 10.1-2.7 10.1-2.2 0-4.9-1.2-4.9-1.2 0.4-6.6 2.4-8.7 2.4-8.7 3.2-1 5.2-0.2 5.2-0.2z"/><path class="ad" d="m568.3 188.8c0 0-1.3-8.5 3.6-11.8l3.9 0.5c0 0 1.4 6.8-2.4 12 0 0-3.9-0.4-5.1-0.7z"/><path class="ad" d="m611 185.4c0 6.8-2.7 10.1-2.7 10.1-2-0.1-3.4-0.6-3.4-0.6 0.8-5.9 2.6-9.7 2.6-9.7 1.4-0.4 3.5 0.2 3.5 0.2z"/><path class="ai" d="m576.7 177.6l2.9 2.3c-15.8-3.1-25.1 2.3-25.1 2.3 10.9-8.1 22.2-4.6 22.2-4.6z"/><path class="ai" d="m611 183.9l3.6 2.7c-8.7-2.1-16.1 1.8-16.1 1.8 6.7-5.4 12.5-4.5 12.5-4.5z"/><path class="j" d="m564.5 182.2c0 0 2.6-0.6 4.8 1.7 0 0-3.1 0.9-4.8-1.7z"/><path class="j" d="m601.9 189.5c0 0 3.9-0.8 5.3 1.1 0 0-2.1 1.4-5.3-1.1z"/><path class="aj" d="m573.4 189.5l1.1-1.8-0.3 4.2c-11.6-1.7-18.8-8.8-18.8-8.8 6.9 5.8 18 6.4 18 6.4z"/><path class="aj" d="m608.3 195.5l0.5-0.8 0.3 2.3c-9.4-2.1-10.6-6.7-10.6-6.7 3.1 4.4 9.8 5.2 9.8 5.2z"/><path class="ak" d="m579.6 208.7c0 0 3.5-0.7 9.9 0 6.5 0.8 13.7 2.5 17.7 0 0 0-5.3 5.3-9.8 6.1-4.6 0.8-11.5-3.2-11.5-3.2h-3c0 0-2.4-1.1-3.3-2.9z"/><path class="al" d="m583.3 211.6c0 0 1.6-1 2.9-0.7 1.3 0.2 2.7 2.1 2.7 2.1 0 0-2.8-1.4-5.6-1.4z"/><path class="am" d="m599.3 209.9c-5.6-0.7-11.4-1.5-11.4-1.5 0 0 3.9-18 8.1-17.4 4.2 0.5 12.9 16.1 11.2 17.7 0 0-2.3 2-7.9 1.2z"/><path class="an" d="m614.7 162.9c-0.1 1.8-0.6 3.8-0.6 3.8-1.6 9.4-3.8 20.9-2.8 25.9 0.4 1.8 1 3.4 1.6 4.9v0.1l-0.5 0.8c0 0-12.9-2.6-13.9-7.4-1.1-4.9 4.2-21.3 4.2-21.3 0 0 8.4-10.2 10.7-9.9 1.1 0.2 1.3 1.6 1.3 3.1z"/><path fill-rule="evenodd" class="ao" d="m617.5 222.1c-0.2 1.9-6.7 42.3-25.4 54.5q0 0.1 0 0.1c0 0-17 4.1-42.7-5.5 0 0-29-16.5-36-44.4 0 0-1.6-6.5 1.8-13.6 0 0 4.9-2 7.1-14.8 2.5-14.2-5-23.9-5-23.9 0 0 1-7.7-1.3-16.4-2.2-8.8-6.5-17.2-4.6-23.4 1.9-6.2 17.7-10.1 24.9-16 1.3-1 2.3-2 3.2-3q0 0 0 0 0.1 0 0.2-0.1c0.9-1 1.7-2 2.4-3l0.8-0.9 0.8-0.9c2.1-2.5 4.7-4.9 10.2-7.4 11-5.1 18.7-5.9 26.6-13q0.1-0.1 0.1-0.1c0 0 0.4 7.2-2.2 13.4 0 0 24.2-5.4 29.9-5.4 5.7 0 7.6 18.1 7.6 18.1v0.1c0.4 0.5 7.2 9.6 9.6 15.9 1.4 3.4-10.4 27.2-10.4 27.2 0 0 1.4-11.3-5.8-21.7l-2.7 2.4c0 0-0.1-0.2-0.3-0.6-1.1-2.1-5-8.4-11.8-10.2 0 0 0 1.3-21.4-0.9-21.4-2.3-30.2-3.4-35.3 1.5-5.1 4.9-3.2 16.5 1.5 20.4 0 0-13 13.9-12.7 33.4 0.4 18.8 14.6 32.7 20.6 35.1q0.3 0.1 0.7 0.2c5.5 1.5 8.3-8.5 41-4.2 23.1 3.1 21.5 6 24.1 11.5 0.7 1.5 4.2-3.9 4.5-4.4zm-6.5 12.3c0.2-8.6-5.9-11.4-7.1-10.9-1.1 0.5-4.5 2.2-14 1.6-9.4-0.6-15.8-5.9-15.8-5.9 0 0-12.2 1.3-15.7 11.1-3.5 9.9 12.7 16.4 15.7 16.2 3.1-0.3 10.6-8.9 10.6-8.9 0 0 8.3-0.6 9.8 0.9 1.5 1.5 2.4 13 7 13.8 4.5 0.8 9.4-12 9.5-17.9z"/><path class="ap" d="m600.3 194.4c0 0 8.2 10.2 7.4 14-0.9 4.2-10.3 6.4-10.3 6.4 0 0 7.6-2.6 9.1-6.4 0 0-1.9-7.7-6.2-14z"/><path class="aq" d="m615.1 159.6c0 0 1.4-11.3-5.8-21.7 5.7-10.4 6.6-21.5 6.6-21.5v0.1c2 4.8 3.1 14.2 3.1 14.2l6.5 1.7c1.4 3.4-10.4 27.2-10.4 27.2z"/><path class="ar" d="m606.3 139.7c-1.1-2.1-5-8.4-11.8-10.2 0 0 0 1.3-21.4-0.9-21.4-2.3-30.2-3.4-35.3 1.5-5.1 4.9-3.2 16.5 1.5 20.4 0 0-13 13.9-12.7 33.4 0.4 18.8 14.6 32.7 20.6 35.1l-0.3 2c0 0 1.1 43 11.5 46.5 10.5 3.4 32.2 1.6 34.2 3.6 1.9 1.9-0.3 5.2-0.5 5.5q0 0.1 0 0.1c0 0-17 4.1-42.7-5.5 0 0-29-16.5-36-44.4 0 0-1.6-6.5 1.8-13.6 0 0 4.9-2 7.1-14.8 2.5-14.2-5-23.9-5-23.9 0 0 1-7.7-1.3-16.4-2.2-8.8-6.5-17.2-4.6-23.4 12.1 1.9 20-4.4 20-4.4 0 0 2.2-3 11.5-4.5 9.4-1.5 47.1 2.3 47.1 2.3 0 0-3.8-3.1-11.7-5.2-7.5-2-33.2 0.3-36 0.5 3-0.5 32.1-5.5 35.4-4.5 3.5 1 16.1 6.8 16.1 6.8-1.1-5.8-12.4-19.7-12.4-19.7 0 0-15.9 0.3-26.3 2.5-9.3 1.9-14.4 6.2-15.4 7.1l2.4-3 0.8-0.9 0.8-0.9 3.6-0.6 18.3-7.4c6.1-3.3 14-11.4 14.9-12.4q0.1-0.1 0.1-0.1c0 0 0.4 7.2-2.2 13.4 15.4-1.9 20.6-0.9 20.6-0.9 7 9.9 7.3 36.9 7.3 36.9z"/><path class="as" d="m549.4 271.2c0 0 9.4-2.2 23.7-1.6 14.3 0.5 22.5 0.6 19 7.1 0 0-18 4-42.7-5.5z"/><path class="at" d="m578.4 103.7c0 0 28.5-6.3 30-5.9 1.4 0.4 2.7 2.2 2.7 2.2-3.4-0.6-12.1 2.8-12.1 2.8-2.8-1.1-20.6 0.9-20.6 0.9z"/><path class="au" d="m581.4 106c0 0-0.7 9.5-3.7 12.9l-35.4 4.5-10.4-1.8c0 0 4.1-1.7 8.5-6.9 4.4-5.1 27.5-10.2 41-8.7z"/><path class="av" d="m625.5 132.4l-6.5-1.7c-0.2-5-3.1-14.3-3.1-14.3 7.6 8.9 9.6 16 9.6 16z"/><path class="aw" d="m512.8 193.6c-0.3 2.2 1.5 9.6-0.2 9.7-1.7 0.1-6.2-4.6-5-11.2 1.2-6.5 3.3-9 3.3-9 0 0-6.5-4.8-8.1-3.6-1.6 1.3-1.5 11.6-0.9 18.9 0.6 7.3 4.8 11.1 4.8 11.1 0 0-3-1.4-5-6.8-2-5.4-3.9-27.6-3.9-27.6 0 0 7-1.9 13.1 4 6.1 5.9 8.6 17.9 8.6 17.9-2.6-5.1-6.4-5.5-6.7-3.4z"/><path class="ax" d="m517.8 191.2c0 0-4.4-1.2-4.9 1.5-0.6 2.7 0.4 7.6 0.4 9.5 0 1.9-5.1 2.3-5.9-6.7-0.7-9 6-13.4 6-13.4 1.5 2 4.4 9.1 4.4 9.1z"/><path class="ay" d="m617.5 222.1c0 0-8.2 37.7-25.4 54.6 0 0 19.6-7.7 25.4-54.6z"/><path class="ay" d="m616.5 117.3c-0.7 10.8-7.2 20.6-7.2 20.6 0 0 5.1-13.1 4.2-24.9-0.8-11.8-5.1-15.2-5.1-15.2 3.4 1.3 8.7 8.8 8.1 19.5z"/><path class="az" d="m576.1 122.5c9.5 1.3 13.9 5.6 13.9 5.6 0 0-2.3-0.2-13.3-1.2-11.1-1-21.2-4.4-21.2-4.4 0 0 11.1-1.3 20.6 0z"/><path class="aA" d="m604.2 218.6c1.4-0.3 4.2 1.1 5.9 2.4 2.3 1.9 4.6 10.3 4.6 10.3l-1.7 6.7c0 0-0.5-4.2-2-9-1.9-6.1-6.7-6.1-6.7-6.1z"/><path class="aB" d="m602.6 218.6l-0.7 4.3c-3.9 1.6-9.8 1.2-9.8 1.2l-0.8-7.2c3.8-0.2 11.3 1.7 11.3 1.7z"/><path class="ay" d="m658.5 338c1.6 3.7 0.9 3.9 3.8 19 2.9 15.1 7.1 34.3 7.1 34.3-6.1-11.8-7.9-38.9-12.4-47.6-4.4-8.6-38.9-33.8-38.9-33.8 13.1 6.6 38.8 24.4 40.4 28.1z"/><path class="ay" d="m599.4 524.8c0.1 5.5 10.5 13.9 10.3 17.3-0.3 3.4-7.8 7.2-6.8 12.4 0.4 2 13.5 21.7 13 24-0.5 2.4-10.8 17.1-10.8 17.1 0 0 9.1-15 9.2-16.4 0.4-4.7-13.7-20.1-14-22.6-0.4-2.4 7.8-13.4 7.8-13.4-0.5-2.7-11.2-12.5-12-17.3-0.8-4.8 15.8-75.9 15.8-75.9 0 0-12.6 69.2-12.5 74.8z"/><path class="ay" d="m615.3 619.5c0 0 35.9 81.2 48.2 162.5 0 0-2.1-79.3-48.2-162.5z"/><path class="am" d="m387.7 293.6c0 0-9.3-2-13.1-10.1-3.9-8.1-1.4-19.8-1.4-19.8 0 0 7.3 13.9 10.9 18.7 3.6 4.8 4.6 10.2 3.6 11.2z"/><path class="aC" d="m687.7 237.2l327.2-2.1c7.6-0.1 13.8 6.2 13.6 13.8l-4.4 185.8c-0.2 7.3-6.2 13.2-13.6 13.2h-316.2c-7.3 0-13.3-5.8-13.5-13.1l-6.5-183.6c-0.3-7.6 5.8-13.9 13.4-14z"/><path fill-rule="evenodd" class="aD" d="m1010.5 448.4h-316.2c-7.6 0-13.8-6-14-13.6l-6.5-183.6c-0.1-3.8 1.3-7.4 3.9-10.2 2.7-2.7 6.2-4.2 10-4.3l327.2-2.1c3.8 0 7.4 1.4 10.1 4.2 2.7 2.7 4.1 6.3 4 10.1l-4.4 185.8c-0.2 7.7-6.4 13.7-14.1 13.7zm4.5-212.8q-0.1 0-0.1 0l-327.1 2.1c-3.6 0.1-6.9 1.5-9.4 4-2.4 2.6-3.7 6-3.6 9.5l6.5 183.6c0.2 7.1 5.9 12.6 13 12.6h316.2c7.1 0 12.9-5.7 13.1-12.7l4.4-185.8c0.1-3.5-1.2-6.9-3.7-9.4-2.5-2.5-5.8-3.9-9.3-3.9z"/><path class="aE" d="m674.6 250.3c-0.1-6.8 5.3-12.5 12.2-12.5l327-2.6c8.5-0.1 15.4 7.1 14.9 15.7l-0.6 9.7h-353.3z"/><path class="aF" d="m800.7 274.8v106.8h-108.1v-106.2z"/><path class="aG" d="m952.3 329.6h-47.1v-47.1h47.1z"/><path class="aH" d="m1007.8 329.6h-47.1v-47.1h47.1z"/><path class="aI" d="m895.8 329.6h-47v-47.1h47z"/><path class="aJ" d="m1007.8 368.3h-120.3v-11.3h120.3z"/><path class="aJ" d="m1007.8 377.6h-150.4v-3.5h150.4z"/><path class="aJ" d="m887.6 339.1h-28.8v-3.5h28.8z"/><path class="aJ" d="m943.1 339.1h-28.7v-3.5h28.7z"/><path class="aJ" d="m998.6 339.1h-28.7v-3.5h28.7z"/><path class="aJ" d="m897.2 383.3h-48.4v-3.5h48.4z"/><path class="aJ" d="m1007.8 388.9h-150.4v-3.5h150.4z"/><path class="aJ" d="m1007.8 394.5h-159v-3.5h159z"/><path class="aJ" d="m1007.8 400.1h-159v-3.5h159z"/><path class="aJ" d="m1007.8 422.8h-150.4v-3.5h150.4z"/><path class="aJ" d="m1007.8 428.4h-159v-3.5h159z"/><path class="aJ" d="m1007.8 434h-159v-3.5h159z"/><path class="aJ" d="m1001.4 405.7h-152.6v-3.5h152.6z"/><path class="aJ" d="m1007.8 411.3h-150.4v-3.5h150.4z"/><path class="aJ" d="m977.6 416.9h-128.8v-3.5h128.8z"/><g style="mix-blend-mode:soft-light"><path fill-rule="evenodd" class="aK" d="m722.9 360.3c-17 0-30.8-13.8-30.8-30.7 0-17 13.8-30.8 30.8-30.8 16.9 0 30.7 13.8 30.7 30.8 0 16.9-13.8 30.7-30.7 30.7zm0-59.5c-15.9 0-28.8 12.9-28.8 28.8 0 15.8 12.9 28.7 28.8 28.7 15.8 0 28.7-12.9 28.7-28.7 0-15.9-12.9-28.8-28.7-28.8z"/></g><path class="j" d="m739.6 329.6c0 9.2-7.5 16.7-16.7 16.7-9.3 0-16.8-7.5-16.8-16.7 0-9.3 7.5-16.8 16.8-16.8 9.2 0 16.7 7.5 16.7 16.8z"/><g style="mix-blend-mode:soft-light"><path fill-rule="evenodd" class="aK" d="m800.7 305.6c-17 0-30.8-13.8-30.8-30.8 0-16.9 13.8-30.7 30.8-30.7 17 0 30.8 13.8 30.8 30.7 0 17-13.8 30.8-30.8 30.8zm0-59.5c-15.9 0-28.8 12.9-28.8 28.7 0 15.9 12.9 28.8 28.8 28.8 15.9 0 28.8-12.9 28.8-28.8 0-15.8-12.9-28.7-28.8-28.7z"/></g><path class="j" d="m816.4 274.8c0 8.7-7 15.8-15.7 15.8-8.7 0-15.7-7.1-15.7-15.8 0-8.7 7-15.7 15.7-15.7 8.7 0 15.7 7 15.7 15.7z"/><g style="mix-blend-mode:soft-light"><path class="j" d="m687.2 246.2l2.2-3.4 12.2 10.6-1.9 2.6z"/><path class="j" d="m689.3 256l-1.8-2.6 12.1-10.6 2.3 3.4z"/></g><path class="j" d="m1019.6 250.5h-108.9v-5.4h108.9z"/><path class="aL" d="m395 164.7l-0.8 49.3-56.5-0.5v-47.3z"/><path class="aM" d="m395 164.7l3.7 6.2-1.9 43-2.6 0.1z"/><path class="j" d="m347.8 182.2l5.2-7.6 28.2 23.7-4.3 5.8z"/><path class="j" d="m352.8 204.1l-4.3-5.8 28.2-23.7 5.3 7.6z"/><path class="aN" d="m469.5 722.4h-193.3c-8.6 0-15.7-6.9-15.9-15.5l-3.6-158.6c-0.2-8.9 7-16.2 15.9-16.2h201.3c8.9 0 16.1 7.3 15.8 16.2l-4.3 158.7c-0.3 8.5-7.3 15.4-15.9 15.4z"/><path fill-rule="evenodd" class="aO" d="m469.5 722.9h-193.3c-8.8 0-16.2-7.2-16.4-16l-3.6-158.6c-0.1-4.4 1.6-8.6 4.7-11.8 3.1-3.2 7.2-4.9 11.7-4.9h201.3c4.4 0 8.6 1.7 11.7 4.9 3.1 3.2 4.7 7.4 4.6 11.9l-4.3 158.6c-0.3 8.9-7.4 15.9-16.4 15.9zm-196.9-190.3c-4.2 0-8.1 1.6-11 4.6-2.9 3-4.5 6.9-4.4 11.1l3.6 158.6c0.2 8.2 7.1 15 15.4 15h193.3c8.4 0 15.1-6.6 15.4-15l4.3-158.6c0.1-4.1-1.4-8.1-4.3-11.1-2.9-3-6.8-4.6-11-4.6z"/><path class="j" d="m410.5 568.9h-101.7v-4.4h101.7z"/><path class="j" d="m359.7 579.5h-50.9v-4.4h50.9z"/><path class="j" d="m359.7 588.3h-50.9v-4.3h50.9z"/><path class="j" d="m405.9 588.3h-40.5v-4.3h40.5z"/><path class="j" d="m390.8 597.1h-82v-4.3h82z"/><path class="j" d="m338 606h-29.2v-4.4h29.2z"/><path class="j" d="m394.5 632.5h-50.5v-4.3h50.5z"/><path class="j" d="m400.3 614.8h-91.5v-4.3h91.5z"/><path class="j" d="m379.2 623.7h-70.4v-4.4h70.4z"/><path class="j" d="m341.9 632.5h-33.1v-4.3h33.1z"/><path class="j" d="m359.7 641.4h-50.9v-4.4h50.9z"/><path class="j" d="m323.4 650.2h-14.6v-4.4h14.6z"/><path class="j" d="m382.4 650.2h-53v-4.4h53z"/><path class="j" d="m394.5 658.8h-50.5v-4.4h50.5z"/><path class="j" d="m341.9 658.8h-33.1v-4.4h33.1z"/><path class="j" d="m359.7 667.6h-50.9v-4.3h50.9z"/><path class="j" d="m323.4 676.5h-14.6v-4.4h14.6z"/><path class="j" d="m382.4 676.5h-53v-4.4h53z"/><path class="aP" d="m988.4 199.7c0 4.9-4 8.9-8.9 8.9-4.9 0-8.9-4-8.9-8.9 0-5 4-9 8.9-9 4.9 0 8.9 4 8.9 9z"/><path class="aQ" d="m150.6 407c0 6.1-4.9 11.1-11.1 11.1-6.1 0-11.1-5-11.1-11.1 0-6.2 5-11.2 11.1-11.2 6.2 0 11.1 5 11.1 11.2z"/><path class="aR" d="m1014.7 199.7c0 4.9-4 8.9-9 8.9-4.9 0-8.9-4-8.9-8.9 0-5 4-9 8.9-9 5 0 9 4 9 9z"/><path class="aS" d="m435.7 261.1c0 3.5-2.8 6.4-6.3 6.4-3.5 0-6.3-2.9-6.3-6.4 0-3.5 2.8-6.3 6.3-6.3 3.5 0 6.3 2.8 6.3 6.3z"/><path class="aT" d="m859 540c0 3.5-2.8 6.3-6.3 6.3-3.5 0-6.3-2.8-6.3-6.3 0-3.5 2.8-6.3 6.3-6.3 3.5 0 6.3 2.8 6.3 6.3z"/><path class="aU" d="m201.3 603c0 3.1-2.5 5.7-5.6 5.7-3.1 0-5.7-2.6-5.7-5.7 0-3.1 2.6-5.6 5.7-5.6 3.1 0 5.6 2.5 5.6 5.6z"/><path class="aV" d="m292 547.5h-97.6c-7.9 0-14.3-6.2-14.6-14l-2.1-64.2c-0.3-8.3 6.3-15.1 14.5-15.1h101.7c8.3 0 14.9 6.8 14.6 15l-2 64.2c-0.2 7.9-6.6 14.1-14.5 14.1z"/><path fill-rule="evenodd" class="aW" d="m292 548h-97.6c-8.2 0-14.8-6.4-15.1-14.5l-2.1-64.2c-0.2-4.1 1.3-8 4.2-11 2.9-3 6.7-4.6 10.8-4.6h101.8c4.1 0 7.9 1.6 10.8 4.6 2.8 2.9 4.3 6.8 4.2 10.9l-2 64.2c-0.2 8.2-6.8 14.6-15 14.6zm-99.8-93.3c-3.8 0-7.4 1.5-10.1 4.3-2.7 2.8-4.1 6.4-3.9 10.3l2.1 64.1c0.3 7.7 6.5 13.6 14.1 13.6h97.6c7.6 0 13.8-5.9 14-13.6l2-64.2c0.1-3.8-1.3-7.5-4-10.2-2.6-2.8-6.2-4.3-10-4.3z"/><path class="j" d="m219.8 488.1l-13.1 14.9 14.2 12.2v10.8l-24.6-20.8 24.1-27.9z"/><path class="j" d="m262.7 478.5l24.1 27.9-24.5 20.8v-10.7l14.1-12.3-15.7-16.7z"/><path class="j" d="m225.7 526l20.9-46.2h9.9l-23.8 46.2z"/><path class="aX" d="m948.6 679.6h-122.1c-9.8 0-17.8-7.7-18.2-17.6l-2.7-80.3c-0.3-10.3 7.9-18.8 18.2-18.8h127.3c10.3 0 18.5 8.5 18.2 18.8l-2.4 80.3c-0.3 9.8-8.4 17.6-18.3 17.6z"/><path fill-rule="evenodd" class="aW" d="m948.6 680.1h-122.1c-10.1 0-18.3-7.9-18.7-18l-2.7-80.4c-0.1-5.1 1.7-9.9 5.3-13.6 3.5-3.7 8.3-5.7 13.4-5.7h127.3c5.1 0 9.9 2 13.4 5.7 3.6 3.6 5.5 8.5 5.3 13.6l-2.4 80.3c-0.4 10.2-8.6 18.1-18.8 18.1zm-124.8-116.7c-4.8 0-9.3 1.9-12.7 5.4-3.4 3.5-5.1 8.1-5 12.9l2.7 80.3c0.4 9.6 8.1 17.1 17.7 17.1h122.1c9.7 0 17.5-7.5 17.8-17.1l2.4-80.3c0.2-4.9-1.6-9.5-5-12.9-3.3-3.5-7.9-5.4-12.7-5.4z"/><path class="aJ" d="m941.9 642.2h-111.8v-66.4h111.8z"/><path class="j" d="m904.7 607.5l-28.6 18.3v-33.5z"/><path class="aJ" d="m941.9 660.5h-111.8v-6h111.8z"/><path class="j" d="m859 654.5v6h-28.9v-6z"/><path fill-rule="evenodd" class="aY" d="m758.1 588q-2.2 3.5-4.7 6.4l2.8 7.8-11.8 8.9-1.2-8.8c-2.4 1.1-4.9 1.7-7.2 1.7l-1.2 4-1.6 5.9-10.5-4.1 4-9.3c-1.8-1.5-3.3-3.5-4.5-5.9l-6.6 6.2-3.1-14.7 6.9-4.3c-0.1-3.2 0.1-6.6 0.8-10.2l-6.5-1.1 6.1-16.7 5.7 3.2c1.7-3.1 3.6-5.9 5.7-8.3l-2.7-7.9 11.8-8.9 1.2 8.9c2.4-1.1 4.8-1.7 7.2-1.7l2.6-9.4 10.7 3.5-4.1 9.3q0.6 0.5 1.2 1.1 2 2.1 3.3 4.9l6.6-6.3 3.1 14.7-6.8 4.3c0.1 2.7-0.1 5.5-0.6 8.4q-0.1 0.9-0.3 1.8l6.6 1.1-6.1 16.7-5.7-3.2q-0.6 1-1.1 2zm-9.9-33.2c-5.9-2-13.2 3.8-16.5 13-3.2 9.2-1.1 18.4 4.8 20.4 5.8 2.1 2.6-7.4 5.8-16.7q0 0 0 0 0 0.1 0 0.1v-0.1q0 0 0 0 0 0 0 0c3.3-9.2 11.7-14.6 5.9-16.7zm-5.9 16.7l5.9-16.7c2 1.5-2.6 7.5-5.9 16.7zm-5.8 16.7c1.5-0.4 2.6-7.4 5.8-16.6z"/><path fill-rule="evenodd" class="aZ" d="m758.1 588l-9.2 5.6 7.3 8.6-11.8 8.9-9.6-3.1-5.5-1.8 1.5 2.9 2.4 4.8-15.1-4.9-10.5-4.1 3.4-7.8-10.5-1.2 5.5-19.8 11-30.5-3.6-9.7 11.8-8.9 9.2 4.4 1.9-7.2 10.6 4.1 4.4 1.4 10.7 3.5-2.9 5.8 9.9 3.2 2.3 14.3-6.9 3.4-0.7 9.2 1 0.5 6.3 2.9-6.1 16.7zm-4.2-50.7l2.8 6.7 2.4-5zm-17.4 51l5.8-16.7 5.9-16.7c-5.9-2.1-13.3 3.7-16.5 13-3.2 9.2-1.1 18.3 4.8 20.4z"/><path fill-rule="evenodd" class="b0" d="m744.1 581.1c-1.7 3.1-3.6 5.9-5.8 8.4l2.8 7.8-11.8 8.9-1.2-8.8c-2.4 1.1-4.8 1.6-7.2 1.7l-2.8 9.9-10.5-4.1 4-9.3c-1.8-1.5-3.3-3.6-4.5-6l-6.6 6.3-3.1-14.7 6.9-4.3c-0.1-3.2 0.2-6.7 0.9-10.2l-6.6-1.1 6.1-16.7 5.7 3.2c1.7-3.1 3.6-5.9 5.7-8.3l-2.7-7.9 11.8-8.9 1.2 8.8c2.4-1 4.8-1.6 7.2-1.6l2.7-10 10.6 4.1-4.1 9.3c1.9 1.5 3.4 3.6 4.5 6l6.6-6.3 3.2 14.7-6.9 4.3c0.1 3.2-0.2 6.7-0.9 10.2l6.6 1.1-6.1 16.7zm-6.3-10.8c3.2-9.2 1.1-18.3-4.7-20.4-5.9-2-13.3 3.8-16.5 13-3.2 9.2-1.1 18.3 4.8 20.4 5.8 2.1 13.2-3.8 16.4-13z"/><path class="b1" d="m765.3 561.2l-15.1-4.9 6.9-4.3 15 4.9z"/><path class="b2" d="m756.2 602.2l-15.1-4.9-2.8-7.8 15.1 4.9z"/><path class="b1" d="m746.9 528.3l15.1 4.9-2.6 5.9-5.5-1.8-2.8 2.7-8.3-2.4z"/><path class="b1" d="m728.1 597.4l0.7 4.9-7.9-3.2c3 0.5 7.2-1.7 7.2-1.7z"/><path class="b1" d="m738.8 557.2c-1.5 1.1-3.4 3.6-3.4 3.6l-13.3-7c13.2-11.3 16.7 3.4 16.7 3.4z"/><path class="b3" d="m416.6 55.9l12.8 25.7-8.6 3.9-12-23.6z"/><path class="b4" d="m133 649.9l11.2 12.4-4.6 5.3-11.9-13z"/><path class="b5" d="m731.2 212.7l-11.9 7.3-4.8-9.1 13.1-7.6z"/><path class="b5" d="m790.1 672.2l-17.1 12.1-4.8-9 16.6-9.8z"/><path class="b6" d="m767.5 150.6l-2.9-67.3h88.1l-3.6 67.1z"/><path class="b7" d="m767.5 150.6h-2.9l-2.7-63.4 2.7-3.9z"/><path class="j" d="m793.8 100.2l-7.7-0.2 0.8 35.6 6.9-0.2v4.8l-11.9 1.2-1.9-46.2 13.8 1.5z"/><path class="j" d="m822.2 96.7l13.8-1.5-1.9 46.2-11.9-1.2v-4.8l6.9 0.2 0.8-35.6-7.7 0.2z"/><path class="b8" d="m104.1 297.8l-2.5-45.7h60.1l-2 45.9z"/><path class="b9" d="m161.7 252.1l1.8 2.7-1.8 43.2h-2z"/><path class="j" d="m138.5 261.3c0 0 6.6-0.2 7.8 0.3 1.1 0.5-0.3 11.3-0.3 11.3l2.6 2.4-2.4 2.3c0 0 0.1 10.9-1.5 11.8-1.5 0.9-6.8 0-6.8 0v-2.7c0 0 4.3 0.3 5-0.3 0.7-0.6 0.7-10.1 0.7-10.1l1.1-1.2-1.1-1.4c0 0 0.2-6.8 0.1-8.7-0.1-1.2-5.2-1.3-5.2-1.3z"/><path class="j" d="m123.4 263.7c0 0-5 0.1-5.1 1.3-0.1 1.9 0.1 8.7 0.1 8.7l-1.2 1.4 1.2 1.2c0 0-0.1 9.5 0.7 10.1 0.7 0.6 5 0.3 5 0.3v2.7c0 0-5.3 0.9-6.9 0-1.5-0.9-1.4-11.8-1.4-11.8l-2.4-2.3 2.6-2.4c0 0-1.5-10.8-0.3-11.3 1.2-0.5 7.7-0.3 7.7-0.3z"/><path fill-rule="evenodd" class="aD" d="m666.7 156.7l-14.7-38.6 38.2 8zm-13.2-37.2l13.5 35.2 21.4-27.9z"/><path class="aD" d="m772.2 703l-0.8-0.6 13-17.6 0.8 0.6z"/><path class="aD" d="m650.8 540.3l-13.9-17.3 0.8-0.6 13.9 17.3z"/><path class="aD" d="m222.2 661.8l-27.8-20.2 0.6-0.8 27.8 20.2z"/><path class="aD" d="m198.6 665.2l-0.8-0.6 20.8-27.2 0.8 0.6z"/><path class="aD" d="m177.4 366.7l-17.9-9.4 0.4-0.9 18 9.5z"/><path class="aD" d="m867.1 124.7l-0.7-0.6 20.7-23.7 0.7 0.7z"/><path class="aD" d="m472.6 201l-9.3-18.6 0.9-0.4 9.2 18.6z"/><path class="aD" d="m317.2 516.3l-0.6-0.7 23.8-20 0.6 0.8z"/></svg>